<?xml version="1.0" encoding="UTF-8"?>
<svg id="Layer_1" data-name="Layer 1" xmlns="http://www.w3.org/2000/svg" viewBox="0 0 587.38 563.59">
  <defs>
    <style>
      .cls-1 {
        fill: #f7c650;
      }

      .cls-2 {
        fill: #c8e5d0;
      }

      .cls-3 {
        fill: #fff;
      }

      .cls-4 {
        fill: #74ae9f;
      }

      .cls-5 {
        fill: #fffcf6;
      }

      .cls-6 {
        fill: #5c9484;
      }
    </style>
  </defs>
  <path class="cls-6" d="M139.33,429.4c-.53-.06-1.03.03-1.5.28-3.02.09-5.93.82-8.83,1.57-.54-.07-1.04.04-1.52.28-3.01.11-5.92.8-8.81,1.56-.56-.08-1.08.06-1.57.31-3.17.11-6.23.87-9.28,1.64-.53-.06-1.03.04-1.5.29-3.02.08-5.93.81-8.83,1.56-.54-.07-1.04.03-1.52.29-3.01.09-5.92.81-8.81,1.56-.54-.07-1.05.03-1.53.29-3.18.15-6.26.86-9.32,1.66-.54-.06-1.04.04-1.52.29-.89.06-1.77.13-2.66.19-.39-.19-.82-.33-1.18-.58-1.54-1.08-1.99-2.3-1.44-4.11.36-1.17.81-2.32,1.24-3.47.58-1.56,1.19-3.12,1.76-4.68,3.44-9.4,6.85-18.8,10.3-28.2,1.66-4.53,3.38-9.04,5.07-13.57.51-1.36.53-1.4-.67-2.45-2.97-2.62-5.54-5.62-8.12-8.62-7.74-9.02-14.29-18.89-20.25-29.17-.75-1.29-1.69-2.49-2.29-3.84-.6-1.33-1.53-1.7-2.85-1.85-7.71-.9-15.4-1.87-23.1-2.81-.69-.08-1.4-.08-2.07-.26-2.33-.59-3.33-3.18-2.05-5.23.23-.37.54-.69.82-1.02,4.37-5.24,8.68-10.54,13.16-15.7,1.27-1.46,1.16-2.62.44-4.21-3.39-7.44-6.49-15.01-9.41-22.66-1.8-4.72-3.05-9.57-3.75-14.54-.76-5.41-.93-10.86-.03-16.29.5-3.07,1.44-5.97,2.84-8.73,3-5.9,7.73-9.6,14.12-11.17,1.36-.33,2.72-.63,4.07-1,3.07-.83,6.16-1.17,9.33-.7.26.04.52.07.78.07.24,0,.51.09.69-.2.17-.28.01-.5-.12-.71-2.62-4.37-5.24-8.74-7.86-13.11-4.55-7.61-9.1-15.23-13.65-22.84-3.56-5.96-7.1-11.92-10.67-17.88-.63-1.05-1.28-2.1-1.98-3.11-1.24-1.78.32-4.64,2.24-4.98.7-.12,1.37-.11,2.08-.06,7.04.51,14.09.98,21.13,1.48,18.86,1.34,37.73,2.69,56.59,4.03,3.48.25,6.95.51,10.43.77.7.05,1.39.11,2.09.13.87.03,1.09-.14,1.15-1.01.17-2.19.3-4.38.44-6.58.68-10.61,1.26-21.22,2.07-31.82.54-7.1.92-14.2,1.4-21.3.21-3.15.47-6.31.72-9.46.03-.44.05-.88.16-1.3.42-1.57,1.89-2.63,3.53-2.52.61.04,1.21.18,1.8.3,15.36,3.27,30.71,6.55,46.07,9.82,8.88,1.89,17.76,3.76,26.63,5.64.17.04.34.1.51.13,1.28.24,1.3.24,1.69-.93.22-.67.43-1.34.6-2.02,2.05-7.99,4.08-15.99,6.14-23.98,1.89-7.31,3.82-14.6,5.71-21.91,1.56-6.03,3.08-12.08,4.64-18.12,2.19-8.5,4.41-16.99,6.61-25.49.3-1.14.71-2.17,1.87-2.69,1.59-.72,3.02-.58,4.33.69,1.58,1.52,3.23,2.97,4.83,4.47,4.68,4.38,9.33,8.78,14.02,13.16,5.71,5.33,11.43,10.65,17.15,15.97,3.15,2.93,6.31,5.84,9.45,8.75.71-.22.83-.86,1.06-1.38,1.16-2.59,1.76-5.32,2.02-8.14.45-4.83.4-9.66-.13-14.48-.64-5.86-1.3-11.72-2.03-17.58-.19-1.48.25-2.61,1.32-3.51,1.88-1.57,4.51-.85,5.33,1.48.67,1.91,1.24,3.86,1.8,5.8,1.69,5.84,3.48,11.65,5.74,17.29,1.34,3.34,2.92,6.59,4.88,9.63,3.27,5.11,7.9,8.09,13.81,9.14,4.24.76,8.51.74,12.78.49,7.5-.44,14.94-1.42,22.38-2.43.71-.1,1.39-.12,2.07.11,1.39.46,2.35,1.73,2.4,3.15.05,1.43-.8,2.74-2.21,3.25-1.31.48-2.65.88-3.99,1.28-3.51,1.07-7.05,2.03-10.53,3.19-6.04,2.01-12.1,3.99-17.61,7.29-2.72,1.63-5.14,3.6-7.03,6.19-1.04,1.43-1.81,2.99-2.47,4.63-.44,1.1-.38,1.91.61,2.76,2.25,1.95,4.41,4.02,6.59,6.06,4.49,4.2,8.96,8.41,13.46,12.6.76.71,1.59,1.35,2.51,2.12,1.7-2.34,3.34-4.58,4.95-6.84,6.2-8.71,12.39-17.43,18.6-26.14,6.76-9.49,13.54-18.98,20.31-28.46,2.5-3.49,4.99-6.98,7.53-10.45.77-1.06,1.61-2.07,2.5-3.03,1.84-1.98,4.7-1.55,5.8.94,1.28,2.89,2.4,5.86,3.6,8.79,1.89,4.65,3.78,9.29,5.65,13.94,2.4,5.96,4.76,11.93,7.16,17.89,1.77,4.4,3.61,8.78,5.38,13.19,2.4,5.96,4.77,11.93,7.16,17.89.79,1.96,1.6,3.91,2.37,5.88.25.64.66.77,1.22.54,2.6-1.02,5.19-2.05,7.79-3.09,4.86-1.94,9.72-3.89,14.58-5.84,4.94-1.98,9.87-3.97,14.81-5.94,4.86-1.94,9.74-3.83,14.6-5.77,4.86-1.94,9.71-3.92,14.56-5.87,4.45-1.79,8.9-3.58,13.37-5.33,1.05-.41,2.13-.87,3.29-.74.66.07,1.18-.25,1.76-.42,1.46-.41,2.8-.2,3.84.97,1.04,1.17,1.09,2.53.49,3.94-1.67,3.96-3.32,7.93-4.99,11.9-.2.49-.43.96-.63,1.45-2.36,5.77-4.72,11.53-7.09,17.3-1.27,3.08-2.56,6.16-3.83,9.24-.33.8-.62,1.63-.91,2.38.46.63,1.01.42,1.51.4,3.5-.18,6.95,0,10.39.8,6.12,1.41,11.1,4.61,14.99,9.54,3.24,4.11,5.57,8.71,7.27,13.66,2.65,7.71,4.08,15.67,5,23.73,1.38,12.08,1.89,24.2,1.29,36.34-.32,6.5-1.18,12.96-2.86,19.25-1.43,5.36-3.28,10.56-6.14,15.35-3.49,5.82-7.93,10.66-13.9,13.96-4.17,2.3-8.6,3.79-13.38,4.2-2.09.18-4.16.44-6.26.21-.26-.03-.54.03-.78-.06-2.16-.78-4.28-.42-6.41.13-.84.22-1.71.35-2.58.47-.85.12-1.72.17-2.74.26.21.67.62,1.07.96,1.52.35.46.72.69,1.32.61,3.14-.4,6.25-.32,9.37.32.84.17,1.74.06,2.61.13,8.76.73,15.83,4.48,21.08,11.72,3.44,4.75,5.04,10.05,5.07,15.81.02,3.89-.88,7.67-2.45,11.24-.21.48-.42.97-.67,1.43-.36.64-.19,1.17.26,1.68.46.53.9,1.08,1.35,1.62,4.6,5.42,9.19,10.85,13.8,16.26,5.12,6.01,10.27,12,15.4,18.01,3.14,3.67,6.26,7.35,9.38,11.03.4.47.83.92,1.15,1.44,1.44,2.28.22,4.97-2.45,5.37-1.12.17-2.25.26-3.38.37-6.51.61-13.03,1.22-19.54,1.81-7.21.65-14.43,1.25-21.63,1.92-5.91.55-11.8,1.18-17.71,1.73-5.91.55-11.82,1.03-17.72,1.57-4.6.43-9.2.94-13.8,1.37-5.82.54-11.64,1.01-17.46,1.54-4.6.42-9.2.92-13.8,1.35-4.52.43-9.03.82-13.55,1.22-.26.02-.53,0-.78.05-3.84.65-3.13-.33-3.58,3.67-.8,7.07-1.5,14.14-2.26,21.21-.13,1.22-.31,2.44-.51,3.65-.13.8.08,1.32.88,1.66,3,1.28,4.87,3.68,6.07,6.61.88,2.15,1.09,4.44.92,6.75-.35,4.67-2.29,8.61-5.5,11.93-1.16,1.2-2.52,2.21-4.12,2.71-1.24.39-1.51,1.16-1.62,2.33-.54,5.51-1.19,11-1.78,16.5-.95,8.91-1.91,17.81-2.83,26.72-.09.89-.23,1.74-.67,2.52-.92,1.63-2.53,2.25-4.25,1.52-1.04-.44-2.02-1.04-3-1.62-6.8-4-13.59-8.02-20.39-12.02-10.28-6.04-20.56-12.07-30.85-18.1-10.36-6.07-20.72-12.14-31.09-18.21-4.24-2.48-8.47-4.96-12.71-7.43-.29-.17-.61-.28-.99-.46-1.06,1.23-2.1,2.41-3.09,3.62-6.21,7.59-12.41,15.19-18.62,22.78-8.82,10.78-17.63,21.55-26.46,32.33-6.88,8.4-13.77,16.79-20.65,25.19-4.83,5.89-9.66,11.78-14.5,17.66-.33.4-.68.81-1.08,1.13-1.78,1.41-4.33.76-5.27-1.33-.07-.16-.12-.33-.18-.5-2.68-7.07-5.2-14.2-7.64-21.36-1.62-4.75-3.41-9.44-5.09-14.17-1.3-3.65-2.54-7.32-3.82-10.98-1.39-3.99-2.78-7.98-4.17-11.97-.52-1.5-1.02-3-1.57-4.49-.15-.41-.44-.79-.99-.58-4.43,1.68-8.68,3.65-11.93,7.3-1.49,1.67-2.47,3.6-3.04,5.76-.57,2.13-.78,4.32-.82,6.52-.08,4.85.36,9.66,1.09,14.45.4,2.61.77,5.23,1.14,7.84.1.7.19,1.4.19,2.1.02,1.63-.95,2.86-2.46,3.3-1.62.47-3.05-.05-4.04-1.62-.18-.29-.27-.65-.38-.98-1.28-3.94-2.53-7.88-3.84-11.81-1.14-3.42-2.47-6.78-4.01-10.05-1.05-2.25-2.5-4.25-4.13-6.09-1.85-2.08-4.11-3.5-6.82-4.26-3.51-.99-7.07-1.02-10.64-.82-4.97.28-9.9.89-14.81,1.69-1.81.3-3.63.52-5.44.78-.98.14-1.93.04-2.76-.53-1.09-.76-1.66-1.81-1.5-3.16.16-1.33.87-2.32,2.11-2.78,1.89-.68,3.81-1.27,5.72-1.89,6.14-2,12.31-3.92,18.08-6.87,1.72-.88,3.28-1.96,4.79-3.16,2.73-2.17,4.28-5.03,5.08-8.37.7-2.93.83-5.91.65-8.9-.29-4.83-.85-9.64-1.6-14.43-.32-2-.56-4.01-.88-6.01-.18-1.11.19-2.07.63-3.03.44-.28.86-.62,1.33-.82,2.09-.89,3.79-.2,4.7,1.91.31.73.56,1.48.81,2.23,1.37,4.18,2.68,8.38,4.13,12.54,1.28,3.65,2.96,7.13,4.9,10.49,3.04,5.24,7.66,7.79,13.54,8.19,1.91.13,3.83.1,5.75.11.49,0,1.04.12,1.45-.51-4.57-13.03-9.16-26.11-13.72-39.1-.38-.07-.56-.15-.72-.12-5.85,1-11.7,2-17.55,3.04-1.71.3-3.39.75-5.08,1.13,0,0-.05,0-.05,0-3.17.12-6.23.85-9.28,1.64ZM214.31,523.03c.63.04.86-.36,1.13-.69.67-.81,1.31-1.65,1.97-2.46,4.28-5.21,8.56-10.42,12.84-15.63,4.55-5.56,9.09-11.12,13.64-16.68,4.38-5.35,8.78-10.69,13.17-16.05,4.27-5.22,8.53-10.45,12.8-15.67,6.49-7.93,12.99-15.85,19.49-23.77,1.44-1.76,2.93-3.49,4.35-5.27,1.21-1.51,2.83-2.15,5.12-.83.08.04.15.1.22.14,2.12,1.23,4.26,2.44,6.37,3.68,7.78,4.58,15.56,9.16,23.34,13.75,4.76,2.81,9.5,5.63,14.27,8.42,5.9,3.46,11.81,6.89,17.71,10.35,4.01,2.35,7.98,4.75,11.99,7.1,4.61,2.7,9.24,5.37,13.86,8.06,2.27,1.32,4.52,2.69,6.8,4.01,1.07.62,1.41.46,1.56-.68.24-1.83.5-3.65.7-5.49,1.03-9.53,2.08-19.05,3.03-28.58.25-2.46.76-2.49-1.75-4.41-2.92-2.24-4.85-5.33-5.3-9.12-.25-2.1-.18-4.23.16-6.32.59-3.61,2.17-6.65,5.11-8.9,1.33-1.02,2.73-1.89,4.33-2.39.56-.17.87-.55.92-1.14.04-.44.12-.87.17-1.31.64-5.94,1.28-11.88,1.9-17.83.5-4.81.96-9.62,1.49-14.43.28-2.53,1.56-3.66,4.08-3.87,3.39-.29,6.77-.64,10.16-.97,3.13-.3,6.25-.61,9.38-.89,4.52-.41,9.03-.79,13.55-1.2,3.65-.33,7.29-.66,10.94-1.01,3.21-.31,6.42-.65,9.63-.95,3.13-.3,6.25-.58,9.38-.87,3.21-.29,6.43-.56,9.64-.86,3.3-.31,6.59-.67,9.89-.98,3.47-.33,6.95-.63,10.42-.95,3.13-.29,6.25-.59,9.38-.88,3.47-.32,6.94-.65,10.42-.97,3.3-.3,6.6-.6,9.9-.9,4.34-.4,8.69-.78,13.02-1.2.59-.06,1.23-.04,1.72-.51-.07-.78-.69-1.21-1.13-1.73-4.37-5.17-8.75-10.32-13.14-15.47-5.36-6.28-10.75-12.54-16.08-18.85-2.11-2.49-1.76-2.37-4.22-.54-6.23,4.65-13.26,6.43-20.98,5.45-1.04-.13-2.08-.28-3.12-.33-4.79-.22-9.31-1.34-13.48-3.83-7.71-4.6-12.35-11.25-13.57-20.24-.07-.55.09-1.22-.5-1.58-.64.15-.91.65-1.26,1.02-2,2.11-4.26,3.89-6.69,5.45-5.44,3.5-11.37,5.27-17.87,4.87-5.19-.32-6.09-.26-10.81.46-5.53.85-10.79-.09-15.67-2.9-3.61-2.08-6.64-4.85-9.18-8.19-.56-.73-1.01-1.59-1.78-2.08-.54.27-.63.73-.83,1.11-1.06,2.02-2.04,4.08-3.16,6.07-2.37,4.17-5.42,7.75-9.45,10.39-6.12,4.03-12.88,5.15-20.04,4.17-1.42-.19-2.74-.13-4.13.2-5.01,1.17-10.03,1.19-15.03-.13-7.07-1.88-12.83-5.89-17.8-11.17-.83-.88-1.54-1.9-2.51-2.57-.16.04-.28.03-.32.08-.29.32-.6.63-.85.98-3.25,4.71-7.02,8.95-11.26,12.78-8.58,7.73-18.27,13.42-29.46,16.38-5.26,1.39-10.58,2.15-16.04,2.13-2.52,0-5.06-.35-7.58.09-1.64.29-3.28.43-4.94.52-7.12.4-14.11-.35-20.98-2.3-2.37-.67-2.42-1.07-3.22,1.72-.1.34-.2.67-.31,1.01-2.11,6.23-5.05,12-9.74,16.67-7.21,7.18-15.72,10.53-25.95,8.31-.79-.17-1.48-.09-2.27.16-6.82,2.23-13.42,1.56-19.78-1.8-2.02-1.07-4.01-2.16-5.77-3.64-.25-.21-.59-.33-1.01-.56-.12.54-.26.95-.29,1.36-.23,3.27-1.06,6.42-1.84,9.57-.81,3.26-2.1,6.31-3.87,9.18-4.17,6.78-10.44,10.46-17.91,12.19-3.56.83-7.26,1.01-10.92.27-1.49-.3-2.91-.19-4.38.19-7.14,1.82-14.02.75-20.73-2.1-3.24-1.38-6.24-3.19-9.13-5.19-.71-.5-1.38-1.09-2.41-1.32-5.07,13.93-10.15,27.87-15.22,41.81-.09.24-.13.52.12.74.31.23.65.06.97,0,3.16-.69,6.32-1.36,9.47-2.09,12-2.76,24.05-5.31,36.1-7.85,11.62-2.44,23.15-5.31,34.82-7.54,3.95-.75,7.84-1.75,11.77-2.58,2.36-.5,3.73.26,4.51,2.47,2.04,5.72,4.05,11.44,6.05,17.18,1.33,3.82,2.58,7.67,3.92,11.49,1.95,5.56,3.95,11.1,5.93,16.65.15.41.32.82.5,1.22.24.55.66.76,1.26.68,1.99-.28,3.98-.54,5.96-.81,1.82-.25,3.63-.53,5.45-.74,1.77-.2,3.16.73,3.62,2.33.5,1.72-.05,3.15-1.63,4.02-.53.29-1.14.43-1.72.61-2.66.84-5.34,1.64-7.99,2.5-1.47.48-1.63.77-1.14,2.35.7,2.27,1.47,4.52,2.25,6.76,2.36,6.72,4.76,13.43,7.12,20.16,2.33,6.64,4.63,13.29,6.96,19.93.43,1.22.95,2.42,1.41,3.59ZM132.38,113.52c-.2,2.08-.43,3.97-.56,5.87-.51,7.28-.98,14.56-1.47,21.84-.55,8.24-1.12,16.49-1.66,24.73-.36,5.53-.68,11.06-1.02,16.59-.03.44.03.9-.08,1.31-.44,1.67-1.39,3.25-3.89,3.16-.61-.02-1.22-.09-1.83-.13-11.4-.82-22.8-1.64-34.2-2.45-14.97-1.07-29.94-2.13-44.9-3.19-2.17-.15-4.35-.31-6.52-.42-.83-.04-1.14.47-.74,1.17,1.22,2.14,2.44,4.27,3.71,6.38,5.12,8.51,10.27,17,15.38,25.52,4.97,8.29,9.92,16.6,14.83,24.93.65,1.1,1.45,1.94,2.54,2.58,2.11,1.25,4.22,2.51,6.16,4.03,4.01,3.14,7.83,6.5,11.33,10.22.66.7,1.37,1.36,2.05,2.04.65.65,1.28,1.32,1.92,1.98.19-.19.29-.24.31-.31.13-.42.27-.84.34-1.26.46-2.98,1.48-5.78,2.82-8.46,2.91-5.83,7.35-9.92,13.45-12.21,1.73-.65,3.53-.91,5.27-1.44,2.82-.86,5.63-1.04,8.53-.79,4.55.39,8.64,2.14,12.51,4.43,2.72,1.61,5.29,3.44,7.67,5.54.37.32.69.84,1.31.68.31-.29.16-.64.13-.96-.46-6.77-.35-13.53.13-20.29.43-6,1.57-11.85,3.74-17.46.79-2.06,1.77-4.01,3-5.84,3.34-4.93,7.76-8.24,13.71-9.28.6-.11,1.2-.25,1.79-.4,4.38-1.14,8.64-.67,12.86.86,2.57.93,4.93,2.26,7.18,3.8.71.49,1.32,1.18,2.33,1.36.26-.29.56-.59.83-.92,3.24-4.06,6.93-7.64,11.05-10.78,8.82-6.71,18.57-11.34,29.48-13.45,4.05-.78,8.13-1.13,12.23-.93,2.46.12,4.88,0,7.3-.31,5.32-.67,10.62-.53,15.92.13,7.15.89,14.04,2.79,20.69,5.61.61.26,1.2.69,2,.49.2-.83.35-1.59.57-2.34,1.45-5.09,3.2-10.03,6.5-14.27,5.14-6.61,11.78-9.64,20.14-8.69.86.1,1.71.23,2.6.17,4.83-.3,9.33.88,13.59,3.19,4.46,2.42,8.19,5.73,11.49,9.53,4.63,5.33,8.43,11.24,11.77,17.45.18.34.16.91.85.84.63-1.01,1.27-2.05,1.93-3.07,2.05-3.21,4.52-6.01,7.68-8.17,2.86-1.94,5.95-3.38,9.35-3.88,1.99-.3,3.96-.63,5.92-1.07,1.36-.3,2.72-.57,4.13-.62,5-.17,9.48,1.36,13.56,4.15,3.58,2.44,6.6,5.49,9.22,8.95.52.69.86,1.55,1.7,1.93.37-.21.39-.57.47-.88.62-2.38,1.25-4.75,1.84-7.14,1.3-5.31,3.17-10.42,5.36-15.41,1.53-3.48,3.46-6.72,5.68-9.76,2.39-3.29,5.26-6.14,8.91-7.98,3.94-1.99,8.24-2.8,12.55-3.53.25-.04.52-.01.78-.01,5.46.01,10.23,1.95,14.49,5.34,2.28,1.82,4.15,4.04,6.04,6.24.33.38.53.92,1.22.9.38-.43.81-.87,1.18-1.35,1.46-1.89,3.25-3.42,5.15-4.83,2.92-2.16,6.13-3.68,9.7-4.39.94-.19,1.57-.6,1.87-1.57.26-.83.67-1.62,1.01-2.43,2.04-4.76,4.07-9.53,6.12-14.28,2.81-6.53,5.64-13.05,8.45-19.58.09-.21.06-.47.09-.86-3.67,1.45-7.23,2.85-10.78,4.26-3.89,1.55-7.77,3.1-11.66,4.66-3.8,1.52-7.61,3.05-11.41,4.58-4.61,1.85-9.22,3.71-13.84,5.54-4.86,1.93-9.75,3.8-14.61,5.74-5.67,2.27-11.31,4.59-16.96,6.88-.24.1-.49.18-.75.25-1.91.52-3.44-.13-4.39-1.92-.25-.46-.41-.97-.6-1.46-.74-1.88-1.46-3.77-2.2-5.65-1.03-2.62-2.09-5.23-3.12-7.85-1.41-3.6-2.79-7.22-4.2-10.82-1.6-4.1-3.22-8.18-4.81-12.28-1.88-4.84-3.62-9.73-5.63-14.51-2.26-5.35-4.22-10.81-6.4-16.19-.79-1.94-1.29-4.02-2.43-5.79-.57.06-.73.5-.98.85-1.38,1.92-2.76,3.84-4.14,5.76-6.03,8.4-12.06,16.8-18.07,25.2-5.15,7.19-10.29,14.4-15.42,21.6-4.12,5.78-8.21,11.58-12.32,17.37-.46.64-.9,1.31-1.43,1.88-1.44,1.55-3.24,1.68-4.91.39-.35-.27-.66-.58-.97-.89-6.06-5.86-12.12-11.72-18.18-17.57-.5-.48-1.05-.92-1.6-1.35-.12-.1-.4-.18-.48-.11-.18.15-.39.4-.38.6.23,3.51.41,7.02.78,10.52.42,4.02,1.02,8.03,1.52,12.05.12.96.22,1.93.24,2.89.02,1.5-.86,2.44-2.13,3.04-1.19.57-2.7.27-3.66-.66-.58-.57-.88-1.28-1.12-2.06-1.28-4.21-2.66-8.39-3.87-12.62-1.23-4.33-2.97-8.46-4.7-12.6-1.32-3.17-2.95-6.19-5.11-8.89-2.86-3.57-6.56-5.75-10.95-6.81-4.03-.97-8.13-1.08-12.23-.89-5.66.26-11.3.81-16.92,1.58-1.73.24-3.46.41-5.19.68-1.03.16-2.08.24-3.13.27-1.65.05-2.98-.89-3.43-2.34-.45-1.44.13-2.93,1.57-3.83.58-.36,1.26-.61,1.92-.81,1.42-.42,2.88-.72,4.3-1.18,5.31-1.71,10.64-3.39,15.9-5.23,3.78-1.33,7.49-2.89,10.88-5.07.51-.33,1.02-.67,1.5-1.05.32-.26.29-.64.03-.93-.53-.59-1.08-1.16-1.64-1.7-3.66-3.55-7.31-7.09-10.98-10.63-4.81-4.63-9.63-9.24-14.44-13.87-3.98-3.84-7.94-7.71-11.92-11.55-.35-.34-.65-.87-1.41-.64-.33,1.02-.72,2.09-1.01,3.19-1.23,4.67-2.43,9.35-3.64,14.03-2.36,9.1-4.72,18.2-7.07,27.3-2.4,9.27-4.81,18.54-7.2,27.81-1.43,5.53-2.83,11.07-4.24,16.6-.11.43-.2.86-.36,1.26-.76,1.9-2.11,2.69-4.13,2.34-1.46-.25-2.91-.58-4.36-.89-9.74-2.09-19.48-4.19-29.22-6.26-11.02-2.35-22.05-4.67-33.07-7-2.72-.58-5.45-1.14-8.37-1.75ZM304.15,246.01c2.2,9.39,5.32,20.67,9.33,31.7,2.71,7.47,6.02,14.63,9.96,21.51,3.48,6.07,7.64,11.62,13.09,16.04,5.37,4.35,11.43,6.65,18.46,6.04,4.93-.43,9.08-2.34,12.55-5.8,1.86-1.86,3.43-3.98,4.68-6.32,1.86-3.49,3.51-7.08,4.73-10.85,1.79-5.51,3.53-11.04,5.32-16.55.49-1.5.99-3.01,1.67-4.43,1.16-2.44,4.07-2.77,5.85-.72.4.46.68,1.03.96,1.57,1.9,3.67,3.82,7.33,5.68,11.02,2.3,4.56,4.85,8.97,7.85,13.1,1.19,1.64,2.48,3.2,3.97,4.57,3.85,3.54,8.33,5.55,13.59,5.16,4.33-.32,8.35-1.63,11.99-4.13,4.48-3.07,7.9-7.11,10.88-11.61,3.02-4.56,5.28-9.51,7.27-14.58,3.22-8.19,5.29-16.73,7.09-25.34.26-1.24.22-2.4-.21-3.62-.5-1.41-.9-2.86-1.23-4.32-1.63-7.24-2.4-14.58-2.77-21.98-.35-6.95-.1-13.89.14-20.83.18-5.01.37-10.02.96-14.99.9-7.59,1.82-15.19,3.99-22.54.24-.79.18-1.54,0-2.33-.87-3.7-2.14-7.26-3.77-10.69-1.26-2.65-3.03-4.93-5.12-6.97-3.9-3.82-10.07-3.94-13.91-1.97-2.37,1.22-4.41,2.83-6.08,4.89-1.89,2.31-3.53,4.79-4.88,7.47-3.42,6.79-5.6,14.01-7.33,21.37-1.02,4.36-1.85,8.77-2.6,13.18-1.12,6.58-1.74,13.24-2.37,19.89-.4,4.28-.5,8.6-.74,12.9-.03.61,0,1.24-.13,1.83-.35,1.62-1.65,2.6-3.44,2.67-1.52.06-2.82-.94-3.21-2.56-.21-.85-.32-1.73-.4-2.61-.45-4.83-1.21-9.61-2.17-14.36-1.39-6.83-3.11-13.56-5.83-20-1.44-3.43-3.28-6.61-5.55-9.54-1.3-1.67-2.76-3.19-4.53-4.37-2.17-1.44-4.57-2.31-7.16-2.22-2.8.1-5.53.73-8.04,2.09-3.17,1.71-5.56,4.21-7.42,7.25-1.51,2.48-2.73,5.1-3.64,7.87-1.43,4.35-2.29,8.85-2.84,13.39-.9,7.35-.92,14.73-.37,22.12.12,1.58.2,3.17.15,4.75-.05,1.76-1.19,2.88-2.95,3.13-1.61.22-3.25-.71-3.75-2.24-.24-.74-.28-1.55-.4-2.34-.55-3.57-.97-7.16-1.68-10.69-1.91-9.5-4.13-18.92-7.42-28.07-2.06-5.73-4.32-11.35-7.23-16.69-2.2-4.04-4.94-7.67-8.22-10.9-2.17-2.13-4.64-3.78-7.52-4.69-5.19-1.65-10.02-1.03-14.24,2.6-1.66,1.43-3.08,3.11-4.13,5.07-1.36,2.56-2.57,5.2-3.29,8.02-1.77,6.95-2.32,14.03-1.77,21.19.5,6.5,1.47,12.95,2.47,19.38,1.47,9.4,3.19,18.76,5.75,30.07ZM35.54,277.97c1.43,5.9,3.39,11.09,5.52,16.21,3.57,8.61,7.23,17.17,11.45,25.49,3.81,7.53,7.5,15.11,11.86,22.35,3.41,5.64,6.71,11.34,10.59,16.68,3.25,4.48,6.46,8.97,10.12,13.14,3.42,3.91,7.03,7.61,11,10.95,4.27,3.58,8.88,6.55,14.14,8.45,5.37,1.94,10.76,2.19,16.18.44,5.29-1.71,9.34-4.93,11.94-9.98,1.88-3.65,2.8-7.56,3.39-11.57.67-4.61,1.06-9.25,1.21-13.91.13-4.22.4-8.43.6-12.64.05-.97.15-1.93.59-2.81.96-1.91,3.08-2.55,4.87-1.38.73.47,1.37,1.09,1.98,1.72,1.21,1.27,2.36,2.6,3.56,3.89,3.39,3.68,6.79,7.35,10.2,11.02,2.04,2.2,4.41,4.02,6.78,5.83,2.04,1.56,4.28,2.74,6.68,3.61,3.94,1.42,7.89,1.42,11.81.03,5.19-1.85,9.24-5.21,12.29-9.78,2.3-3.44,4.12-7.14,5.27-11.14.8-2.78,1.5-5.6,2.21-8.4.21-.85.3-1.73.44-2.6.11-.65-.05-1.22-.59-1.64-.28-.21-.54-.45-.82-.66-4.32-3.37-7.91-7.47-11.32-11.72-3.75-4.68-6.7-9.89-9.44-15.2-2.71-5.24-4.78-10.78-6.47-16.43-1.56-5.23-2.93-10.51-3.94-15.89-1.7-9.11-2.72-18.26-2.41-27.55.3-9.12,1.67-18.01,4.57-26.65.47-1.42.96-2.82,1.62-4.17.8-1.66,1.5-3.37,2.26-5.05.23-.51.34-.96-.05-1.46-2.28-2.95-4.87-5.55-8.24-7.24-3.98-2-7.94-1.8-11.79.3-3.2,1.74-5.28,4.53-6.77,7.79-1.35,2.96-2.3,6.07-2.95,9.27-1.26,6.15-1.47,12.4-1.46,18.64.02,9.34,1.11,18.61,2.48,27.84.84,5.67,1.95,11.28,3.11,16.88.37,1.81.81,3.61,1.09,5.44.28,1.79-.61,3.15-2.23,3.69-1.76.59-3.36-.02-4.24-1.64-.17-.31-.26-.65-.39-.98-2.98-7.92-6.54-15.57-10.71-22.91-3.01-5.29-6.58-10.18-10.85-14.52-2.04-2.08-4.38-3.79-6.97-5.12-2.72-1.4-5.6-1.97-8.63-1.31-4.16.91-7.59,3.01-10.13,6.49-1.89,2.58-3.16,5.45-3.82,8.6-.91,4.32-1.14,8.7-.96,13.11.16,3.88.72,7.7,1.48,11.51,1.13,5.62,2.47,11.18,4.37,16.59.49,1.41,1.01,2.82,1.49,4.23.5,1.47.21,2.8-.9,3.87-1.05,1.01-2.8,1.13-4.15.39-1-.55-1.42-1.53-1.82-2.51-3.36-8.13-7.17-16.05-11.58-23.67-3.35-5.78-6.75-11.51-10.79-16.85-3.62-4.78-7.47-9.31-11.98-13.27-2.46-2.16-5.17-3.91-8.07-5.4-2.21-1.14-4.56-1.83-7.02-1.97-6.21-.38-11.03,1.94-14.17,7.51-.91,1.62-1.57,3.32-2,5.13-.45,1.88-.71,3.8-.83,5.73-.32,5.31.4,10.53,1.36,15.23ZM185.4,275.05c2.41,10.65,5.62,20.29,10.58,29.32,4.93,8.98,11.08,16.86,19.21,23.13,7.15,5.51,15.09,9.19,23.87,11.04,8.16,1.71,16.3,1.62,24.42-.2,4.54-1.02,8.88-2.66,12.99-4.8,16.63-8.64,28.03-21.95,34.55-39.59.53-1.42.51-2.66-.12-4.03-3.23-7.05-5.73-14.39-8.02-21.79-1.9-6.14-3.58-12.35-5-18.63-1.41-6.27-2.92-12.53-4.04-18.86-1.17-6.59-2.37-13.18-3.22-19.82-.55-4.28-1.11-8.56-1.54-12.85-.11-1.08-.51-1.79-1.29-2.44-1.88-1.59-3.83-3.07-5.85-4.48-10.01-6.94-21.05-11.04-33.1-12.34-5.13-.55-10.26-.47-15.37.43-6.43,1.14-12.42,3.48-18.15,6.54-9.85,5.26-17.73,12.67-23.47,22.32-3.94,6.62-6.45,13.82-8.03,21.36-1.36,6.48-1.74,13.07-1.71,19.66.05,9.01,1.32,17.9,3.27,26.02ZM464.13,245.65c.6,2.21,1.11,4.45,1.81,6.63,1,3.11,2.31,6.08,4.1,8.83,1.31,2.01,2.9,3.74,4.9,5.08,2.33,1.56,4.83,2.35,7.66,2.19,2.2-.12,4.34-.47,6.47-.94,6.02-1.32,10.88-4.52,14.86-9.21,3.11-3.66,5.26-7.86,6.94-12.32,1.64-4.36,2.73-8.9,3.46-13.51,1.07-6.87,1.46-13.81,1.38-20.76-.13-11.61-.84-23.2-1.92-34.76-.58-6.15-1.67-12.22-3.35-18.16-.89-3.14-2.18-6.12-4.13-8.78-2.07-2.84-4.75-4.65-8.24-5.1-1.21-.16-2.43-.29-3.64-.28-1.74.01-3.49.07-5.22.27-5.38.62-10.07,2.68-13.72,6.85-1.63,1.86-2.97,3.88-4.16,6.05-3.03,5.53-4.63,11.55-6.01,17.64-1.35,5.92-2.07,11.95-2.61,17.98-.82,9.19-1.15,18.42-1.03,27.65.11,8.28.7,16.53,2.46,24.66ZM492.15,325.39c6.43-1.46,9.86-3.54,13.23-7.43,5.67-6.55,6.89-17.73.57-25.78-5.93-7.57-16.92-10.61-26.19-5.86-6.71,3.44-10.59,9.06-11.44,16.55-.64,5.64.9,10.79,4.68,15.17,5.57,6.46,12.57,8.52,19.15,7.35ZM322.03,75.5c-.41-.01-.73-.02-1.05-.04-3.84-.2-7.65-.53-11.36-1.67-4.56-1.4-8.38-3.9-11.47-7.55-1.59-1.88-2.94-3.94-4.1-6.12-.74-1.39-1.46-2.79-2.24-4.28-.35.86-.31,1.64-.37,2.42-.12,1.66-.23,3.33-.45,4.98-.41,2.97-1.11,5.85-2.45,8.57-2.36,4.81-6.04,8.31-10.56,11-1.85,1.1-3.72,2.16-5.57,3.25-.02.01.02.24.05.24,2.16.22,4.33.36,6.48.65,4.37.6,8.52,1.84,12.21,4.43,3.22,2.26,5.75,5.14,7.73,8.51,1.15,1.95,2.18,3.97,3.4,6.21.16-1.62.3-3.01.43-4.4.23-2.63.59-5.24,1.34-7.78,1.34-4.59,3.84-8.42,7.44-11.53,2.6-2.24,5.51-3.98,8.55-5.53.69-.35,1.46-.58,2-1.37ZM158.2,457.35c-.21.13-.32.15-.32.2-.2,1.3-.39,2.6-.58,3.9-.92,6.51-4.29,11.38-9.73,14.87-1.02.66-2.05,1.3-3.3,2.1,1.46.18,2.66.33,3.86.47,6.42.75,11.59,3.63,15.28,9.08.77,1.13,1.56,2.24,2.39,3.44.75-.84.46-1.79.57-2.62.46-3.33,1.21-6.52,3.02-9.44,1.99-3.22,4.75-5.56,7.86-7.56.68-.44,1.47-.74,2.09-1.56-3.02-.36-5.9-.56-8.63-1.55-2.73-1-5.22-2.43-7.34-4.48-2.08-2.01-3.49-4.54-5.15-6.84ZM404.35,421.91c-3.08.49-5.19,2.86-5.69,5.96-.21,1.31-.16,2.62-.11,3.94.06,1.67.75,3.08,1.76,4.31,2.89,3.51,8.7,3.69,11.54.24,2.19-2.66,3.14-5.65,2.8-9.03-.24-2.36-1.47-4.17-3.78-4.94-2.08-.69-4.24-1-6.52-.47ZM36.63,331.32c.39.08.7.18,1.03.21,4.17.38,8.34.75,12.51,1.12.51.05.96-.27.59-1-1.67-3.29-3.29-6.61-4.94-9.91-.15-.29-.4-.53-.62-.83-.29.19-.55.28-.71.47-2.52,3.03-5.02,6.07-7.52,9.12-.15.19-.19.47-.33.82Z"/>
  <path class="cls-4" d="M434.42,29.78c5.33-1.14,9.68-.83,13.84.71,6.05,2.25,9.48,6.76,10.04,13.28.65,7.61-2,13.97-7.51,19.11-3.1,2.89-6.94,4.02-11.06,4.01-5.51-.01-10.23-2.13-13.95-6.27-2.16-2.41-3.4-5.33-3.88-8.54-.53-3.6-.45-7.12.59-10.69,1.85-6.32,7.19-10.72,11.93-11.62ZM451.17,43.21c-.45-2.64-1.86-4.85-4.62-5.99-3.87-1.6-7.82-1.82-11.74-.34-2.18.83-3.79,2.4-4.88,4.53-1.33,2.6-1.53,5.31-1.33,8.19.3,4.27,2.31,7.26,6.04,9.19,4.63,2.39,11.17,1.15,13.97-3.85.73-1.3,1.44-2.6,1.98-4,.95-2.45,1.16-4.93.59-7.74Z"/>
  <path class="cls-2" d="M214.31,523.03c-.46-1.17-.98-2.37-1.41-3.59-2.33-6.64-4.63-13.29-6.96-19.93-2.36-6.72-4.76-13.43-7.12-20.16-.79-2.24-1.55-4.49-2.25-6.76-.49-1.58-.33-1.87,1.14-2.35,2.66-.86,5.33-1.66,7.99-2.5.58-.18,1.19-.32,1.72-.61,1.57-.86,2.12-2.29,1.63-4.02-.46-1.6-1.85-2.53-3.62-2.33-1.82.21-3.63.49-5.45.74-1.99.27-3.98.53-5.96.81-.6.09-1.02-.13-1.26-.68-.18-.4-.35-.81-.5-1.22-1.98-5.55-3.98-11.09-5.93-16.65-1.34-3.82-2.59-7.67-3.92-11.49-1.99-5.73-4.01-11.46-6.05-17.18-.79-2.21-2.16-2.97-4.51-2.47-3.93.83-7.83,1.83-11.77,2.58-11.67,2.23-23.2,5.1-34.82,7.54-12.05,2.53-24.1,5.08-36.1,7.85-3.15.72-6.31,1.4-9.47,2.09-.32.07-.66.24-.97,0-.25-.22-.21-.51-.12-.74,5.07-13.94,10.15-27.88,15.22-41.81,1.03.22,1.7.82,2.41,1.32,2.89,2.01,5.89,3.82,9.13,5.19,6.7,2.85,13.59,3.92,20.73,2.1,1.47-.38,2.89-.49,4.38-.19,3.66.73,7.36.55,10.92-.27,7.47-1.73,13.74-5.41,17.91-12.19,1.77-2.88,3.06-5.92,3.87-9.18.78-3.15,1.61-6.3,1.84-9.57.03-.41.17-.82.29-1.36.42.23.76.34,1.01.56,1.76,1.48,3.75,2.58,5.77,3.64,6.36,3.36,12.95,4.03,19.78,1.8.79-.26,1.48-.34,2.27-.16,10.24,2.22,18.74-1.13,25.95-8.31,4.68-4.66,7.63-10.43,9.74-16.67.11-.33.22-.67.31-1.01.8-2.8.85-2.4,3.22-1.72,6.87,1.95,13.86,2.7,20.98,2.3,1.66-.09,3.3-.23,4.94-.52,2.52-.44,5.05-.1,7.58-.09,5.45.02,10.78-.74,16.04-2.13,11.19-2.97,20.88-8.65,29.46-16.38,4.24-3.82,8.01-8.07,11.26-12.78.25-.35.55-.66.85-.98.05-.05.17-.04.32-.08.98.67,1.68,1.68,2.51,2.57,4.97,5.29,10.73,9.3,17.8,11.17,5,1.33,10.02,1.3,15.03.13,1.39-.32,2.71-.39,4.13-.2,7.16.98,13.92-.14,20.04-4.17,4.02-2.65,7.08-6.22,9.45-10.39,1.12-1.98,2.11-4.04,3.16-6.07.2-.38.29-.84.83-1.11.78.49,1.22,1.35,1.78,2.08,2.53,3.33,5.57,6.1,9.18,8.19,4.88,2.81,10.14,3.75,15.67,2.9,4.72-.72,5.62-.78,10.81-.46,6.5.4,12.43-1.38,17.87-4.87,2.43-1.56,4.69-3.35,6.69-5.45.35-.37.61-.87,1.26-1.02.59.36.42,1.04.5,1.58,1.22,8.99,5.86,15.64,13.57,20.24,4.17,2.49,8.69,3.62,13.48,3.83,1.04.05,2.08.19,3.12.33,7.72.98,14.74-.8,20.98-5.45,2.46-1.83,2.12-1.95,4.22.54,5.33,6.3,10.72,12.56,16.08,18.85,4.39,5.15,8.77,10.3,13.14,15.47.44.52,1.06.96,1.13,1.73-.49.47-1.13.45-1.72.51-4.34.42-8.68.81-13.02,1.2-3.3.3-6.6.59-9.9.9-3.47.32-6.95.64-10.42.97-3.13.29-6.25.59-9.38.88-3.47.32-6.95.62-10.42.95-3.3.31-6.59.67-9.89.98-3.21.3-6.43.57-9.64.86-3.13.28-6.25.57-9.38.87-3.21.31-6.42.65-9.63.95-3.64.35-7.29.69-10.94,1.01-4.52.41-9.03.79-13.55,1.2-3.13.28-6.25.59-9.38.89-3.39.32-6.77.68-10.16.97-2.52.21-3.81,1.34-4.08,3.87-.52,4.81-.98,9.62-1.49,14.43-.62,5.94-1.27,11.89-1.9,17.83-.05.44-.13.87-.17,1.31-.06.59-.37.97-.92,1.14-1.61.5-3,1.37-4.33,2.39-2.94,2.25-4.52,5.29-5.11,8.9-.34,2.09-.42,4.22-.16,6.32.45,3.79,2.38,6.88,5.3,9.12,2.51,1.92,1.99,1.95,1.75,4.41-.95,9.53-2,19.06-3.03,28.58-.2,1.83-.46,3.66-.7,5.49-.15,1.14-.49,1.3-1.56.68-2.27-1.32-4.52-2.68-6.8-4.01-4.62-2.69-9.25-5.36-13.86-8.06-4.01-2.35-7.98-4.75-11.99-7.1-5.9-3.46-11.81-6.89-17.71-10.35-4.76-2.8-9.51-5.62-14.27-8.42-7.78-4.59-15.56-9.17-23.34-13.75-2.11-1.24-4.25-2.45-6.37-3.68-.08-.04-.15-.1-.22-.14-2.29-1.31-3.91-.68-5.12.83-1.42,1.78-2.9,3.51-4.35,5.27-6.5,7.92-13,15.84-19.49,23.77-4.27,5.22-8.53,10.45-12.8,15.67-4.38,5.35-8.78,10.69-13.17,16.05-4.55,5.56-9.09,11.13-13.64,16.68-4.27,5.22-8.56,10.42-12.84,15.63-.67.81-1.31,1.65-1.97,2.46-.27.33-.5.73-1.13.69ZM222.67,500.32c.87-.15,1.57-.74,2.16-1.56,4.79-6.57,9.61-13.13,14.42-19.69,2.43-3.31,4.89-6.61,7.32-9.93,2.85-3.88,5.69-7.76,8.51-11.66.41-.56.78-1.18,1-1.83.71-2.11-1.29-4.79-3.83-4.18-1.3.32-2.15,1.13-2.87,2.12-3.89,5.29-7.75,10.59-11.62,15.89-2.79,3.82-5.56,7.64-8.35,11.45-3.46,4.73-6.94,9.44-10.4,14.17-.94,1.29-.96,2.65-.15,3.92.77,1.21,2.09,1.68,3.81,1.29ZM504.37,361.45c.29-.07.46-.1.63-.15,1.89-.48,2.82-1.71,2.71-3.61-.09-1.55-1.37-2.81-3.13-3-.51-.06-1.04-.01-1.56.02-4,.24-7.99.48-11.99.73-2.08.13-4.17.27-6.25.45-1.78.16-3.33,1.86-3.28,3.51.05,1.82,1.44,3.15,3.45,3.26.61.03,1.22.03,1.83,0,4.52-.29,9.03-.59,13.55-.9,1.39-.09,2.78-.21,4.04-.31ZM527.12,359.96c.69-.16.95-.21,1.2-.28,1.85-.51,3.13-3.42,1.33-5.39-.92-1-2.07-1.21-3.34-1.13-1.99.13-3.99.25-5.98.37-1.99.13-3.99.22-5.98.4-1.81.16-3.26,1.82-3.2,3.54.07,1.88,1.39,3.15,3.4,3.27.43.03.87.04,1.3.01,2.34-.14,4.68-.29,7.02-.46,1.56-.11,3.12-.25,4.23-.34ZM279.41,428.02c-.09-.46-.48-1.03-1.06-1.46-1.38-1.02-3.26-1.38-5.11.66-1.82,2-3.64,4-5.46,6.01-.59.65-1.17,1.3-1.73,1.97-1.55,1.87-.91,4.52,1.85,5.34,1.29.39,2.44-.01,3.33-.97,2.5-2.68,4.97-5.38,7.43-8.1.81-.89,1.07-1.98.75-3.45Z"/>
  <path class="cls-2" d="M132.38,113.52c2.93.61,5.65,1.17,8.37,1.75,11.03,2.33,22.05,4.65,33.07,7,9.74,2.07,19.48,4.18,29.22,6.26,1.45.31,2.9.64,4.36.89,2.02.34,3.38-.45,4.13-2.34.16-.41.26-.84.36-1.26,1.41-5.53,2.81-11.07,4.24-16.6,2.39-9.27,4.8-18.54,7.2-27.81,2.36-9.1,4.72-18.2,7.07-27.3,1.21-4.68,2.41-9.36,3.64-14.03.29-1.1.68-2.17,1.01-3.19.75-.24,1.06.29,1.41.64,3.98,3.84,7.93,7.71,11.92,11.55,4.8,4.63,9.63,9.24,14.44,13.87,3.67,3.53,7.33,7.08,10.98,10.63.57.55,1.12,1.12,1.64,1.7.26.29.29.67-.03.93-.47.38-.98.72-1.5,1.05-3.4,2.19-7.1,3.75-10.88,5.07-5.27,1.85-10.59,3.52-15.9,5.23-1.41.46-2.87.75-4.3,1.18-.66.2-1.34.44-1.92.81-1.44.9-2.02,2.39-1.57,3.83.45,1.44,1.78,2.38,3.43,2.34,1.05-.03,2.1-.11,3.13-.27,1.73-.27,3.46-.44,5.19-.68,5.62-.78,11.26-1.33,16.92-1.58,4.1-.19,8.2-.08,12.23.89,4.39,1.05,8.09,3.24,10.95,6.81,2.17,2.7,3.79,5.72,5.11,8.89,1.73,4.14,3.47,8.27,4.7,12.6,1.2,4.23,2.59,8.41,3.87,12.62.24.78.53,1.49,1.12,2.06.96.93,2.46,1.23,3.66.66,1.26-.6,2.15-1.54,2.13-3.04-.01-.97-.12-1.93-.24-2.89-.5-4.02-1.1-8.02-1.52-12.05-.36-3.5-.55-7.01-.78-10.52-.01-.2.2-.45.38-.6.08-.07.35.01.48.11.55.43,1.1.87,1.6,1.35,6.07,5.85,12.12,11.72,18.18,17.57.32.31.63.62.97.89,1.67,1.29,3.47,1.16,4.91-.39.53-.58.97-1.24,1.43-1.88,4.11-5.79,8.2-11.59,12.32-17.37,5.13-7.21,10.27-14.41,15.42-21.6,6.02-8.41,12.05-16.8,18.07-25.2,1.38-1.92,2.75-3.84,4.14-5.76.25-.35.42-.79.98-.85,1.14,1.76,1.65,3.84,2.43,5.79,2.18,5.38,4.14,10.84,6.4,16.19,2.01,4.78,3.75,9.67,5.63,14.51,1.59,4.1,3.22,8.18,4.81,12.28,1.41,3.6,2.79,7.22,4.2,10.82,1.03,2.62,2.09,5.23,3.12,7.85.74,1.88,1.47,3.77,2.2,5.65.19.49.35,1,.6,1.46.96,1.79,2.48,2.44,4.39,1.92.25-.07.5-.15.75-.25,5.65-2.29,11.3-4.62,16.96-6.88,4.86-1.94,9.74-3.81,14.61-5.74,4.62-1.83,9.23-3.69,13.84-5.54,3.8-1.52,7.6-3.06,11.41-4.58,3.88-1.56,7.77-3.11,11.66-4.66,3.55-1.41,7.11-2.81,10.78-4.26-.04.39,0,.65-.09.86-2.81,6.53-5.64,13.05-8.45,19.58-2.05,4.76-4.08,9.52-6.12,14.28-.35.81-.75,1.6-1.01,2.43-.3.97-.93,1.38-1.87,1.57-3.57.71-6.78,2.23-9.7,4.39-1.9,1.41-3.69,2.94-5.15,4.83-.37.48-.8.92-1.18,1.35-.69.02-.89-.52-1.22-.9-1.89-2.2-3.76-4.42-6.04-6.24-4.25-3.39-9.02-5.32-14.49-5.34-.26,0-.53-.03-.78.01-4.31.73-8.62,1.53-12.55,3.53-3.65,1.85-6.52,4.7-8.91,7.98-2.22,3.05-4.15,6.29-5.68,9.76-2.19,4.99-4.06,10.1-5.36,15.41-.58,2.39-1.22,4.76-1.84,7.14-.08.32-.1.68-.47.88-.84-.39-1.18-1.25-1.7-1.93-2.62-3.46-5.64-6.51-9.22-8.95-4.09-2.79-8.56-4.32-13.56-4.15-1.42.05-2.77.32-4.13.62-1.96.43-3.93.77-5.92,1.07-3.4.5-6.49,1.94-9.35,3.88-3.17,2.15-5.63,4.96-7.68,8.17-.66,1.03-1.3,2.06-1.93,3.07-.68.07-.67-.5-.85-.84-3.34-6.22-7.14-12.13-11.77-17.45-3.3-3.8-7.04-7.1-11.49-9.53-4.26-2.31-8.76-3.48-13.59-3.19-.89.05-1.74-.08-2.6-.17-8.36-.95-15,2.08-20.14,8.69-3.3,4.24-5.05,9.18-6.5,14.27-.21.75-.37,1.52-.57,2.34-.8.2-1.4-.23-2-.49-6.65-2.82-13.54-4.71-20.69-5.61-5.3-.66-10.6-.8-15.92-.13-2.42.31-4.84.43-7.3.31-4.1-.2-8.18.15-12.23.93-10.91,2.11-20.65,6.74-29.48,13.45-4.13,3.14-7.82,6.72-11.05,10.78-.26.33-.57.63-.83.92-1.01-.18-1.61-.87-2.33-1.36-2.25-1.54-4.6-2.88-7.18-3.8-4.22-1.52-8.48-2-12.86-.86-.59.15-1.19.29-1.79.4-5.95,1.04-10.37,4.35-13.71,9.28-1.24,1.83-2.21,3.78-3,5.84-2.17,5.62-3.31,11.46-3.74,17.46-.48,6.76-.59,13.52-.13,20.29.02.32.18.68-.13.96-.63.16-.94-.36-1.31-.68-2.38-2.1-4.96-3.93-7.67-5.54-3.87-2.29-7.96-4.04-12.51-4.43-2.89-.25-5.71-.07-8.53.79-1.73.53-3.54.79-5.27,1.44-6.1,2.29-10.54,6.38-13.45,12.21-1.34,2.69-2.36,5.48-2.82,8.46-.07.43-.21.85-.34,1.26-.02.07-.12.12-.31.31-.63-.65-1.27-1.32-1.92-1.98-.68-.69-1.39-1.34-2.05-2.04-3.5-3.72-7.32-7.08-11.33-10.22-1.94-1.52-4.05-2.78-6.16-4.03-1.09-.64-1.89-1.48-2.54-2.58-4.91-8.33-9.86-16.63-14.83-24.93-5.11-8.52-10.26-17.01-15.38-25.52-1.27-2.11-2.49-4.24-3.71-6.38-.4-.7-.09-1.21.74-1.17,2.18.11,4.35.27,6.52.42,14.97,1.06,29.94,2.12,44.9,3.19,11.4.81,22.8,1.63,34.2,2.45.61.04,1.22.11,1.83.13,2.5.09,3.46-1.49,3.89-3.16.11-.41.05-.87.08-1.31.34-5.53.66-11.06,1.02-16.59.54-8.25,1.1-16.49,1.66-24.73.49-7.28.96-14.56,1.47-21.84.13-1.9.36-3.8.56-5.87ZM154.53,138.24c-6.67,1.31-10.94,6.55-11.49,12.65-.1,1.13-.07,2.28-.06,3.42.06,5.85,3.4,11.82,10.54,13.8,5.12,1.42,9.91.64,13.86-3.15,3.93-3.77,5.66-8.48,5.68-13.96,0-2.68-.81-4.98-2.21-7.17-1.42-2.22-3.32-3.87-5.8-4.73-3.52-1.22-7.12-1.74-10.51-.86ZM376.85,92.41c-.42-1.62-1.91-2.61-3.57-2.42-1.32.16-2.19.88-2.94,1.95-3.62,5.16-7.27,10.3-10.94,15.42-4.59,6.4-9.21,12.79-13.81,19.18-.41.57-.77,1.16-.96,1.86-.55,2.09.67,3.95,2.79,4.24,1.33.18,2.43-.31,3.23-1.34.76-.96,1.38-2.03,2.1-3.02,3.92-5.48,7.85-10.96,11.79-16.43,1.94-2.7,3.9-5.38,5.84-8.08,1.94-2.7,3.86-5.42,5.8-8.12.71-.98.98-2.05.66-3.24ZM68.69,189.1c-1.22.28-2.14,1.32-2.5,2.76-.35,1.39.27,2.39,1.27,3.21.69.57,1.54.73,2.43.85,3.54.45,7.07.98,10.61,1.46,3.36.46,6.73.89,10.09,1.35.87.12,1.74.21,2.58-.13,1.33-.53,2.1-1.51,2.22-2.97.11-1.38-.54-2.34-1.68-3.04-.69-.42-1.47-.55-2.24-.66-1.46-.21-2.93-.39-4.4-.59-5.35-.73-10.69-1.47-16.04-2.17-.77-.1-1.55-.3-2.33-.07ZM112.51,196.54c-.31-1.56-1.43-2.57-3.12-2.69-1.39-.1-2.78-.14-4.17-.11-.69.01-1.38.19-2.05.35-.92.22-1.5.83-1.85,1.7-.92,2.26.38,4.45,2.95,4.72,1.64.17,3.31.23,4.95.15,1.84-.09,3.81-1.61,3.3-4.12ZM385.89,79.95c-.57-2.53-3.64-3.75-5.28-2.07-1.57,1.61-2.64,3.64-3.77,5.59-.13.22-.16.5-.19.76-.2,1.92,1.07,3.68,2.81,3.75,1.44.05,2.75-.29,3.58-1.67.76-1.27,1.57-2.51,2.38-3.75.57-.86.72-1.76.47-2.62Z"/>
  <path class="cls-1" d="M304.15,246.01c-2.56-11.31-4.28-20.67-5.75-30.07-1.01-6.43-1.97-12.88-2.47-19.38-.56-7.16,0-14.24,1.77-21.19.72-2.82,1.93-5.46,3.29-8.02,1.04-1.96,2.46-3.64,4.13-5.07,4.22-3.63,9.05-4.25,14.24-2.6,2.88.92,5.35,2.56,7.52,4.69,3.28,3.23,6.01,6.86,8.22,10.9,2.91,5.34,5.18,10.96,7.23,16.69,3.29,9.15,5.51,18.57,7.42,28.07.71,3.53,1.13,7.13,1.68,10.69.12.78.16,1.59.4,2.34.5,1.53,2.14,2.46,3.75,2.24,1.77-.24,2.9-1.36,2.95-3.13.04-1.58-.03-3.17-.15-4.75-.55-7.39-.53-14.77.37-22.12.55-4.54,1.41-9.03,2.84-13.39.91-2.76,2.13-5.39,3.64-7.87,1.85-3.04,4.25-5.54,7.42-7.25,2.52-1.36,5.24-1.99,8.04-2.09,2.58-.09,4.98.77,7.16,2.22,1.77,1.18,3.23,2.69,4.53,4.37,2.27,2.93,4.11,6.11,5.55,9.54,2.71,6.45,4.43,13.17,5.83,20,.97,4.75,1.73,9.53,2.17,14.36.08.88.2,1.76.4,2.61.39,1.62,1.69,2.62,3.21,2.56,1.8-.07,3.09-1.05,3.44-2.67.13-.59.1-1.22.13-1.83.24-4.3.34-8.61.74-12.9.63-6.65,1.25-13.3,2.37-19.89.75-4.42,1.57-8.83,2.6-13.18,1.73-7.37,3.91-14.59,7.33-21.37,1.35-2.68,3-5.16,4.88-7.47,1.68-2.06,3.71-3.67,6.08-4.89,3.85-1.97,10.01-1.85,13.91,1.97,2.09,2.05,3.86,4.32,5.12,6.97,1.63,3.43,2.9,6.99,3.77,10.69.19.79.24,1.54,0,2.33-2.18,7.36-3.09,14.95-3.99,22.54-.59,4.97-.78,9.98-.96,14.99-.25,6.94-.49,13.88-.14,20.83.37,7.4,1.14,14.74,2.77,21.98.33,1.46.73,2.91,1.23,4.32.43,1.21.47,2.38.21,3.62-1.8,8.61-3.87,17.15-7.09,25.34-1.99,5.07-4.25,10.02-7.27,14.58-2.97,4.49-6.39,8.53-10.88,11.61-3.64,2.49-7.67,3.81-11.99,4.13-5.27.38-9.74-1.63-13.59-5.16-1.49-1.37-2.78-2.93-3.97-4.57-3-4.14-5.55-8.54-7.85-13.1-1.86-3.69-3.77-7.35-5.68-11.02-.28-.54-.56-1.11-.96-1.57-1.77-2.05-4.69-1.72-5.85.72-.68,1.42-1.18,2.93-1.67,4.43-1.79,5.51-3.53,11.04-5.32,16.55-1.22,3.77-2.87,7.36-4.73,10.85-1.25,2.34-2.81,4.46-4.68,6.32-3.46,3.47-7.62,5.37-12.55,5.8-7.03.61-13.09-1.69-18.46-6.04-5.45-4.42-9.61-9.96-13.09-16.04-3.94-6.88-7.25-14.05-9.96-21.51-4.01-11.03-7.12-22.31-9.33-31.7ZM322.45,270.48c-1.86.42-2.93,1.99-2.65,3.93.06.43.18.86.28,1.29.63,2.66,1.57,5.23,2.64,7.74,2.4,5.61,5.6,10.76,9.33,15.56,2.6,3.35,5.66,6.25,9.14,8.67,2.26,1.57,4.74,2.64,7.44,3.15.95.18,1.91.3,2.86.14,1.5-.25,2.72-1.57,2.85-3.03.15-1.67-.85-3.12-2.5-3.56-.42-.11-.86-.17-1.29-.19-1.71-.08-3.21-.71-4.65-1.61-2.63-1.64-4.96-3.65-6.95-6-5.62-6.65-9.91-14.06-12.24-22.53-.14-.51-.22-1.04-.42-1.53-.64-1.56-2.25-2.38-3.84-2.02ZM401.76,272.27c-1.52.3-2.64,1.54-2.7,3.13-.03.78.02,1.61.25,2.35.61,1.93,1.26,3.84,2.03,5.71,1.8,4.37,4.6,8.07,7.82,11.47,2.56,2.71,5.53,4.85,8.93,6.38.79.36,1.58.75,2.47.84,1.65.16,3.16-.79,3.66-2.34.48-1.49-.07-2.98-1.49-3.85-.59-.36-1.24-.65-1.89-.91-1.48-.6-2.82-1.43-4.04-2.43-5.29-4.36-9.08-9.72-10.72-16.49-.19-.77-.31-1.55-.75-2.24-.82-1.28-2.17-1.9-3.59-1.62Z"/>
  <path class="cls-1" d="M35.54,277.97c-.96-4.7-1.68-9.92-1.36-15.23.11-1.93.37-3.85.83-5.73.43-1.8,1.09-3.5,2-5.13,3.13-5.56,7.96-7.88,14.17-7.51,2.46.15,4.81.84,7.02,1.97,2.89,1.49,5.6,3.24,8.07,5.4,4.51,3.95,8.36,8.49,11.98,13.27,4.04,5.34,7.44,11.07,10.79,16.85,4.41,7.62,8.22,15.53,11.58,23.67.4.97.83,1.96,1.82,2.51,1.35.74,3.1.62,4.15-.39,1.11-1.07,1.4-2.39.9-3.87-.48-1.42-.99-2.82-1.49-4.23-1.9-5.41-3.24-10.97-4.37-16.59-.76-3.81-1.32-7.63-1.48-11.51-.18-4.4.05-8.78.96-13.11.66-3.14,1.93-6.01,3.82-8.6,2.54-3.48,5.97-5.58,10.13-6.49,3.03-.67,5.91-.09,8.63,1.31,2.59,1.33,4.93,3.04,6.97,5.12,4.27,4.34,7.84,9.23,10.85,14.52,4.18,7.35,7.73,15,10.71,22.91.12.33.22.67.39.98.88,1.62,2.48,2.23,4.24,1.64,1.62-.54,2.51-1.9,2.23-3.69-.29-1.82-.72-3.63-1.09-5.44-1.16-5.61-2.27-11.22-3.11-16.88-1.37-9.24-2.47-18.51-2.48-27.84-.01-6.23.2-12.49,1.46-18.64.65-3.2,1.6-6.3,2.95-9.27,1.48-3.26,3.57-6.05,6.77-7.79,3.86-2.1,7.81-2.3,11.79-.3,3.36,1.69,5.96,4.28,8.24,7.24.39.51.27.96.05,1.46-.76,1.68-1.45,3.39-2.26,5.05-.65,1.35-1.14,2.75-1.62,4.17-2.9,8.64-4.27,17.54-4.57,26.65-.31,9.29.71,18.43,2.41,27.55,1.01,5.38,2.38,10.66,3.94,15.89,1.69,5.65,3.76,11.19,6.47,16.43,2.74,5.31,5.69,10.53,9.44,15.2,3.41,4.25,6.99,8.35,11.32,11.72.28.22.54.45.82.66.55.42.7.99.59,1.64-.14.87-.23,1.75-.44,2.6-.71,2.81-1.41,5.62-2.21,8.4-1.15,4-2.97,7.7-5.27,11.14-3.05,4.57-7.1,7.93-12.29,9.78-3.92,1.39-7.87,1.39-11.81-.03-2.4-.87-4.64-2.05-6.68-3.61-2.37-1.81-4.73-3.64-6.78-5.83-3.41-3.66-6.8-7.34-10.2-11.02-1.19-1.29-2.34-2.62-3.56-3.89-.6-.63-1.25-1.25-1.98-1.72-1.79-1.17-3.91-.53-4.87,1.38-.44.88-.55,1.84-.59,2.81-.2,4.21-.46,8.42-.6,12.64-.15,4.66-.54,9.3-1.21,13.91-.59,4.01-1.51,7.92-3.39,11.57-2.59,5.05-6.64,8.27-11.94,9.98-5.42,1.75-10.81,1.5-16.18-.44-5.26-1.91-9.87-4.87-14.14-8.45-3.98-3.34-7.58-7.04-11-10.95-3.65-4.17-6.87-8.66-10.12-13.14-3.88-5.34-7.18-11.04-10.59-16.68-4.37-7.23-8.05-14.82-11.86-22.35-4.22-8.32-7.87-16.89-11.45-25.49-2.13-5.12-4.08-10.31-5.52-16.21ZM46.81,252.16c-.76.11-1.36.62-1.9,1.19-2.02,2.13-3.51,4.57-4.23,7.46-1.02,4.07-1.02,8.16-.32,12.29,1.14,6.73,3.67,13.01,6.25,19.27,2.75,6.67,5.93,13.13,9.2,19.55.32.63.61,1.28,1,1.86,1.09,1.61,3.01,2.11,4.6,1.26,1.65-.88,2.22-2.64,1.41-4.52-.38-.89-.88-1.72-1.32-2.58-4.72-9.15-9-18.49-12.37-28.23-1.5-4.34-2.54-8.79-2.35-13.44.12-2.98.83-5.73,2.82-8.03.29-.33.57-.67.8-1.04.71-1.12.88-2.27.11-3.45-.75-1.16-2.32-1.86-3.69-1.6ZM185.47,356.66c.24-.09.49-.17.73-.26,1.93-.76,2.89-2.34,2.48-4.07-.41-1.73-1.95-2.69-4.04-2.39-.97.14-1.92.18-2.84-.13-1.82-.61-3.62-1.31-5.19-2.46-3.34-2.44-6.4-5.17-8.78-8.6-.35-.5-.71-1.02-1.14-1.44-1.2-1.18-3-1.3-4.31-.35-1.43,1.03-1.84,2.85-.99,4.42.29.54.63,1.06.99,1.55,2.73,3.69,5.93,6.92,9.68,9.56,2.15,1.51,4.46,2.77,6.96,3.61,2.1.71,4.25.9,6.45.57ZM78.18,339.42c-.13-.9-.7-1.71-1.15-2.55-1.67-3.08-3.41-6.12-5.12-9.17-.26-.46-.49-.94-.83-1.33-1.15-1.32-2.98-1.52-4.51-.55-1.21.77-1.76,2.5-1.24,3.96.15.41.39.78.6,1.17,1.84,3.38,3.69,6.77,5.54,10.15.25.46.5.93.83,1.33,1.01,1.25,2.64,1.63,4,.97,1.54-.75,2.27-2.23,1.9-3.98Z"/>
  <path class="cls-1" d="M185.4,275.05c-1.95-8.12-3.22-17.01-3.27-26.02-.04-6.6.35-13.19,1.71-19.66,1.58-7.53,4.09-14.74,8.03-21.36,5.73-9.64,13.61-17.06,23.47-22.32,5.73-3.05,11.72-5.4,18.15-6.54,5.11-.9,10.24-.98,15.37-.43,12.05,1.29,23.09,5.39,33.1,12.34,2.02,1.4,3.97,2.89,5.85,4.48.77.65,1.18,1.36,1.29,2.44.43,4.29.99,8.57,1.54,12.85.85,6.64,2.05,13.23,3.22,19.82,1.12,6.34,2.63,12.59,4.04,18.86,1.42,6.28,3.1,12.49,5,18.63,2.29,7.4,4.79,14.74,8.02,21.79.63,1.37.65,2.61.12,4.03-6.52,17.64-17.93,30.95-34.55,39.59-4.11,2.13-8.45,3.78-12.99,4.8-8.12,1.82-16.26,1.91-24.42.2-8.78-1.84-16.73-5.52-23.87-11.04-8.13-6.28-14.28-14.16-19.21-23.13-4.96-9.03-8.17-18.68-10.58-29.32ZM238.94,264c1.17,6.52,3.14,12.82,5.49,18.99,1.28,3.37,2.74,6.67,4.75,9.69.98,1.47,2.02,2.89,3.41,3.98,4.08,3.2,8.55,2.44,11.03-2.09.5-.92.85-1.92,1.22-2.91,1.49-4.02,1.69-8.24,1.73-12.46.07-9.64-1.49-19.1-3.31-28.52-1.22-6.32-3.13-12.46-5.39-18.48-1.52-4.04-3.32-7.95-5.82-11.49-1.22-1.73-2.58-3.31-4.39-4.48-4.04-2.6-7.53-1.87-10.02,2.21-1.01,1.65-1.73,3.44-2.14,5.35-.57,2.67-.78,5.38-.81,8.11-.09,8.04,1.07,15.96,2.38,23.86.46,2.77,1.24,5.49,1.87,8.24ZM190,255.86c.37,1.9,1.85,3.06,3.75,2.95,1.58-.09,2.9-1.58,3-3.42.03-.44-.02-.88-.02-1.32-.07-4.04-.25-8.08-.02-12.12.49-8.69,2.23-17.06,6.15-24.88,3.61-7.22,8.72-13.08,15.44-17.5.51-.34,1.04-.65,1.5-1.05,1.18-1.06,1.47-2.72.74-4.09-.58-1.09-1.89-2.12-3.78-1.66-1.06.26-1.89.88-2.75,1.47-9.1,6.18-15.5,14.56-19.51,24.79-2.12,5.41-3.42,11.05-4.14,16.84-.72,5.78-.59,11.58-.61,17.38,0,.87.17,1.75.26,2.63Z"/>
  <path class="cls-1" d="M464.13,245.65c-1.76-8.13-2.35-16.38-2.46-24.66-.13-9.23.21-18.46,1.03-27.65.54-6.03,1.26-12.07,2.61-17.98,1.39-6.09,2.98-12.11,6.01-17.64,1.19-2.17,2.53-4.19,4.16-6.05,3.66-4.17,8.34-6.23,13.72-6.85,1.73-.2,3.48-.26,5.22-.27,1.21,0,2.44.13,3.64.28,3.5.45,6.17,2.26,8.24,5.1,1.95,2.66,3.24,5.64,4.13,8.78,1.68,5.95,2.77,12.01,3.35,18.16,1.09,11.56,1.79,23.15,1.92,34.76.08,6.95-.3,13.89-1.38,20.76-.72,4.61-1.82,9.14-3.46,13.51-1.67,4.46-3.83,8.66-6.94,12.32-3.98,4.68-8.84,7.88-14.86,9.21-2.13.47-4.27.82-6.47.94-2.83.15-5.33-.64-7.66-2.19-2.01-1.34-3.59-3.07-4.9-5.08-1.79-2.75-3.11-5.72-4.1-8.83-.7-2.18-1.21-4.41-1.81-6.63ZM468.62,196.3c.39,1.83,1.59,2.87,3.18,2.96,1.64.09,3.09-.95,3.49-2.57.12-.5.11-1.04.12-1.57.06-3.08.37-6.13.82-9.17.87-5.96,2.46-11.7,5.12-17.08,2.43-4.91,5.37-9.46,10.17-12.43.37-.23.7-.53.98-.87.45-.54.75-1.16.79-1.91.15-2.61-2.49-4.43-4.85-3.25-1.72.86-3.21,2.08-4.64,3.38-3.34,3.06-5.86,6.75-7.91,10.73-4.91,9.52-7.08,19.76-7.27,30.46,0,.52.02,1.05.03,1.32ZM470.05,237.92c.08,1.76.59,3.37,1.21,4.91.96,2.36,3.91,2.87,5.59,1.01.88-.97,1.16-2.13.78-3.43-.84-2.88-1.35-5.81-1.55-8.8-.04-.52-.15-1.05-.3-1.55-.51-1.64-1.98-2.53-3.65-2.27-1.96.31-3.05,1.61-2.94,3.67.11,2.19.35,4.38.87,6.45Z"/>
  <path class="cls-1" d="M492.15,325.39c-6.59,1.17-13.58-.89-19.15-7.35-3.78-4.38-5.32-9.54-4.68-15.17.85-7.49,4.73-13.11,11.44-16.55,9.27-4.75,20.26-1.71,26.19,5.86,6.32,8.06,5.1,19.23-.57,25.78-3.37,3.9-6.8,5.97-13.23,7.43ZM474.11,308.48c.39,1.67,1.05,3.19,2.02,4.56,1.22,1.74,3.05,2.15,4.81,1.14,1.5-.86,1.94-2.77,1.06-4.61-.15-.32-.33-.62-.49-.93-.63-1.19-.87-2.47-.84-3.81.08-3.2,1.47-5.7,3.96-7.61.41-.32.89-.56,1.24-.94,1.11-1.2,1.24-2.89.38-4.09-.99-1.38-2.62-1.89-4.15-1.24-1.04.44-2.02,1.03-2.85,1.81-4.53,4.3-6.16,9.56-5.13,15.71Z"/>
  <path class="cls-1" d="M322.03,75.5c-.55.79-1.31,1.02-2,1.37-3.04,1.55-5.95,3.28-8.55,5.53-3.61,3.11-6.1,6.94-7.44,11.53-.74,2.54-1.1,5.15-1.34,7.78-.12,1.39-.27,2.77-.43,4.4-1.22-2.24-2.25-4.25-3.4-6.21-1.98-3.37-4.51-6.25-7.73-8.51-3.69-2.59-7.84-3.83-12.21-4.43-2.15-.29-4.32-.43-6.48-.65-.03,0-.07-.23-.05-.24,1.85-1.09,3.72-2.15,5.57-3.25,4.52-2.69,8.2-6.19,10.56-11,1.33-2.71,2.04-5.6,2.45-8.57.23-1.65.33-3.32.45-4.98.06-.78.02-1.56.37-2.42.78,1.49,1.49,2.89,2.24,4.28,1.16,2.18,2.5,4.23,4.1,6.12,3.09,3.65,6.91,6.14,11.47,7.55,3.71,1.14,7.52,1.47,11.36,1.67.32.02.64.02,1.05.04Z"/>
  <path class="cls-1" d="M158.2,457.35c1.66,2.3,3.07,4.83,5.15,6.84,2.12,2.05,4.61,3.48,7.34,4.48,2.73.99,5.61,1.19,8.63,1.55-.62.82-1.4,1.12-2.09,1.56-3.11,2-5.87,4.34-7.86,7.56-1.8,2.91-2.56,6.11-3.02,9.44-.11.82.17,1.77-.57,2.62-.83-1.2-1.62-2.31-2.39-3.44-3.69-5.44-8.86-8.33-15.28-9.08-1.2-.14-2.4-.29-3.86-.47,1.25-.8,2.28-1.45,3.3-2.1,5.44-3.49,8.81-8.36,9.73-14.87.18-1.3.38-2.6.58-3.9,0-.04.11-.07.32-.2Z"/>
  <path class="cls-2" d="M404.35,421.91c2.28-.53,4.44-.23,6.52.47,2.31.77,3.54,2.59,3.78,4.94.34,3.38-.61,6.37-2.8,9.03-2.84,3.45-8.65,3.26-11.54-.24-1.01-1.23-1.7-2.64-1.76-4.31-.05-1.32-.1-2.62.11-3.94.5-3.1,2.61-5.46,5.69-5.96Z"/>
  <path class="cls-2" d="M36.63,331.32c.14-.35.18-.63.33-.82,2.5-3.05,5-6.09,7.52-9.12.15-.19.42-.28.71-.47.23.3.48.54.62.83,1.65,3.3,3.27,6.62,4.94,9.91.37.73-.07,1.04-.59,1-4.17-.37-8.34-.74-12.51-1.12-.32-.03-.64-.13-1.03-.21Z"/>
  <path class="cls-2" d="M451.17,43.21c.57,2.81.36,5.3-.59,7.74-.54,1.4-1.25,2.69-1.98,4-2.81,5-9.35,6.24-13.97,3.85-3.73-1.93-5.74-4.92-6.04-9.19-.2-2.88,0-5.59,1.33-8.19,1.09-2.13,2.7-3.7,4.88-4.53,3.92-1.49,7.87-1.26,11.74.34,2.76,1.14,4.17,3.35,4.62,5.99Z"/>
  <path class="cls-5" d="M222.67,500.32c-1.72.39-3.04-.08-3.81-1.29-.81-1.27-.79-2.64.15-3.92,3.45-4.73,6.93-9.44,10.4-14.17,2.79-3.81,5.57-7.63,8.35-11.45,3.87-5.3,7.73-10.6,11.62-15.89.73-.99,1.57-1.8,2.87-2.12,2.54-.62,4.55,2.07,3.83,4.18-.22.65-.6,1.27-1,1.83-2.82,3.9-5.66,7.78-8.51,11.66-2.43,3.32-4.89,6.61-7.32,9.93-4.81,6.56-9.63,13.12-14.42,19.69-.6.82-1.29,1.41-2.16,1.56Z"/>
  <path class="cls-5" d="M504.37,361.45c-1.26.1-2.65.22-4.04.31-4.52.31-9.03.61-13.55.9-.61.04-1.22.04-1.83,0-2-.11-3.39-1.43-3.45-3.26-.05-1.65,1.51-3.35,3.28-3.51,2.08-.18,4.16-.32,6.25-.45,4-.25,7.99-.49,11.99-.73.52-.03,1.05-.08,1.56-.02,1.75.2,3.04,1.45,3.13,3,.11,1.9-.82,3.13-2.71,3.61-.17.04-.34.08-.63.15Z"/>
  <path class="cls-5" d="M527.12,359.96c-1.11.09-2.67.23-4.23.34-2.34.16-4.68.31-7.02.46-.43.03-.87.01-1.3-.01-2.02-.12-3.33-1.39-3.4-3.27-.07-1.72,1.39-3.38,3.2-3.54,1.99-.18,3.98-.27,5.98-.4,1.99-.13,3.99-.25,5.98-.37,1.27-.08,2.42.13,3.34,1.13,1.8,1.96.52,4.88-1.33,5.39-.25.07-.51.12-1.2.28Z"/>
  <path class="cls-5" d="M279.41,428.02c.33,1.47.06,2.56-.75,3.45-2.46,2.72-4.93,5.42-7.43,8.1-.89.95-2.04,1.35-3.33.97-2.76-.82-3.4-3.47-1.85-5.34.56-.67,1.14-1.32,1.73-1.97,1.82-2.01,3.64-4.01,5.46-6.01,1.85-2.04,3.73-1.68,5.11-.66.58.43.98,1,1.06,1.46Z"/>
  <path class="cls-1" d="M154.53,138.24c3.4-.87,6.99-.35,10.51.86,2.48.86,4.38,2.51,5.8,4.73,1.4,2.18,2.22,4.49,2.21,7.17-.01,5.48-1.75,10.19-5.68,13.96-3.95,3.79-8.73,4.56-13.86,3.15-7.14-1.98-10.48-7.95-10.54-13.8-.01-1.14-.04-2.29.06-3.42.55-6.09,4.82-11.34,11.49-12.65ZM165.9,149.88c-.49-2.53-1.97-4.06-4.42-4.69-1.97-.51-3.94-.62-5.94-.15-3.04.72-4.82,2.64-5.48,5.67-.38,1.74-.33,3.52.06,5.23,1.49,6.47,9.08,7.43,12.41,4.23,2.89-2.78,3.98-6.28,3.36-10.29Z"/>
  <path class="cls-3" d="M376.85,92.41c.32,1.19.05,2.25-.66,3.24-1.94,2.7-3.86,5.42-5.8,8.12-1.94,2.7-3.9,5.38-5.84,8.08-3.93,5.47-7.86,10.95-11.79,16.43-.71,1-1.34,2.06-2.1,3.02-.8,1.03-1.9,1.52-3.23,1.34-2.13-.29-3.34-2.15-2.79-4.24.18-.7.54-1.29.96-1.86,4.61-6.39,9.23-12.78,13.81-19.18,3.67-5.12,7.32-10.26,10.94-15.42.75-1.07,1.62-1.79,2.94-1.95,1.66-.2,3.15.79,3.57,2.42Z"/>
  <path class="cls-3" d="M68.69,189.1c.78-.22,1.57-.03,2.33.07,5.35.7,10.69,1.44,16.04,2.17,1.47.2,2.93.38,4.4.59.77.11,1.55.24,2.24.66,1.14.69,1.79,1.65,1.68,3.04-.12,1.46-.89,2.44-2.22,2.97-.84.34-1.7.24-2.58.13-3.36-.46-6.73-.89-10.09-1.35-3.54-.48-7.07-1.01-10.61-1.46-.89-.11-1.74-.27-2.43-.85-.99-.83-1.62-1.82-1.27-3.21.36-1.43,1.27-2.48,2.5-2.75Z"/>
  <path class="cls-3" d="M112.51,196.54c.51,2.51-1.47,4.03-3.3,4.12-1.64.08-3.31.02-4.95-.15-2.57-.27-3.87-2.46-2.95-4.72.35-.86.94-1.48,1.85-1.7.67-.16,1.36-.33,2.05-.35,1.39-.02,2.79.01,4.17.11,1.69.12,2.81,1.13,3.12,2.69Z"/>
  <path class="cls-3" d="M385.89,79.95c.25.86.09,1.76-.47,2.62-.82,1.23-1.62,2.48-2.38,3.75-.83,1.38-2.14,1.72-3.58,1.67-1.74-.07-3.01-1.83-2.81-3.75.03-.26.06-.54.19-.76,1.14-1.95,2.2-3.99,3.77-5.59,1.65-1.68,4.71-.46,5.28,2.07Z"/>
  <path class="cls-5" d="M322.45,270.48c1.6-.36,3.2.46,3.84,2.02.2.48.28,1.02.42,1.53,2.34,8.47,6.62,15.88,12.24,22.53,1.99,2.35,4.32,4.36,6.95,6,1.44.9,2.94,1.53,4.65,1.61.43.02.87.08,1.29.19,1.64.44,2.65,1.89,2.5,3.56-.13,1.47-1.35,2.78-2.85,3.03-.96.16-1.92.04-2.86-.14-2.7-.51-5.18-1.58-7.44-3.15-3.48-2.41-6.54-5.32-9.14-8.67-3.73-4.8-6.92-9.96-9.33-15.56-1.07-2.51-2.01-5.07-2.64-7.74-.1-.43-.22-.86-.28-1.29-.27-1.94.79-3.5,2.65-3.93Z"/>
  <path class="cls-5" d="M401.76,272.27c1.42-.28,2.77.34,3.59,1.62.44.69.56,1.47.75,2.24,1.64,6.77,5.43,12.13,10.72,16.49,1.22,1.01,2.56,1.84,4.04,2.43.65.26,1.3.54,1.89.91,1.42.87,1.97,2.36,1.49,3.85-.51,1.55-2.01,2.5-3.66,2.34-.89-.09-1.68-.48-2.47-.84-3.4-1.52-6.37-3.67-8.93-6.38-3.22-3.4-6.02-7.1-7.82-11.47-.77-1.87-1.43-3.78-2.03-5.71-.23-.74-.27-1.57-.25-2.35.05-1.59,1.18-2.83,2.7-3.13Z"/>
  <path class="cls-5" d="M46.81,252.16c1.37-.26,2.94.44,3.69,1.6.77,1.18.6,2.33-.11,3.45-.23.37-.52.71-.8,1.04-1.99,2.3-2.69,5.05-2.82,8.03-.19,4.65.85,9.1,2.35,13.44,3.37,9.74,7.65,19.09,12.37,28.23.44.86.94,1.69,1.32,2.58.81,1.88.23,3.64-1.41,4.52-1.58.85-3.51.34-4.6-1.26-.39-.58-.68-1.23-1-1.86-3.27-6.42-6.45-12.89-9.2-19.55-2.58-6.26-5.11-12.54-6.25-19.27-.7-4.12-.69-8.22.32-12.29.72-2.89,2.21-5.33,4.23-7.46.55-.58,1.15-1.08,1.9-1.19Z"/>
  <path class="cls-5" d="M185.47,356.66c-2.2.34-4.35.15-6.45-.57-2.5-.84-4.81-2.1-6.96-3.61-3.74-2.64-6.94-5.87-9.68-9.56-.36-.49-.7-1.01-.99-1.55-.86-1.57-.44-3.38.99-4.42,1.32-.95,3.11-.83,4.31.35.43.43.79.94,1.14,1.44,2.38,3.43,5.44,6.16,8.78,8.6,1.57,1.14,3.37,1.85,5.19,2.46.92.31,1.87.26,2.84.13,2.09-.29,3.63.66,4.04,2.39.41,1.74-.55,3.31-2.48,4.07-.24.1-.49.18-.73.26Z"/>
  <path class="cls-5" d="M78.18,339.42c.37,1.75-.36,3.24-1.9,3.98-1.35.66-2.99.28-4-.97-.33-.4-.58-.87-.83-1.33-1.85-3.38-3.69-6.76-5.54-10.15-.21-.38-.45-.76-.6-1.17-.52-1.46.03-3.19,1.24-3.96,1.53-.97,3.36-.77,4.51.55.34.39.58.87.83,1.33,1.72,3.05,3.45,6.09,5.12,9.17.46.84,1.02,1.65,1.15,2.55Z"/>
  <path class="cls-6" d="M238.94,264c-.63-2.74-1.41-5.47-1.87-8.24-1.31-7.9-2.47-15.82-2.38-23.86.03-2.73.23-5.44.81-8.11.41-1.91,1.13-3.7,2.14-5.35,2.49-4.08,5.98-4.82,10.02-2.21,1.81,1.17,3.17,2.74,4.39,4.48,2.5,3.55,4.3,7.45,5.82,11.49,2.26,6.02,4.17,12.16,5.39,18.48,1.82,9.42,3.38,18.88,3.31,28.52-.03,4.22-.24,8.44-1.73,12.46-.36.99-.72,1.99-1.22,2.91-2.47,4.53-6.94,5.29-11.03,2.09-1.39-1.09-2.43-2.51-3.41-3.98-2.01-3.02-3.46-6.32-4.75-9.69-2.35-6.17-4.32-12.47-5.49-18.99Z"/>
  <path class="cls-5" d="M190,255.86c-.09-.88-.26-1.75-.26-2.63.02-5.8-.11-11.6.61-17.38.72-5.79,2.03-11.43,4.14-16.84,4.01-10.23,10.42-18.6,19.51-24.79.86-.58,1.7-1.21,2.75-1.47,1.88-.46,3.2.56,3.78,1.66.73,1.37.44,3.03-.74,4.09-.45.41-.99.72-1.5,1.05-6.72,4.42-11.83,10.28-15.44,17.5-3.92,7.82-5.66,16.19-6.15,24.88-.23,4.04-.05,8.08.02,12.12,0,.44.05.88.02,1.32-.11,1.84-1.42,3.33-3,3.42-1.9.11-3.38-1.06-3.75-2.95Z"/>
  <path class="cls-5" d="M468.62,196.3c0-.27-.04-.79-.03-1.32.19-10.7,2.36-20.94,7.27-30.46,2.05-3.98,4.58-7.67,7.91-10.73,1.43-1.31,2.91-2.52,4.64-3.38,2.36-1.18,5,.64,4.85,3.25-.04.75-.34,1.36-.79,1.91-.27.33-.61.64-.98.87-4.8,2.97-7.74,7.51-10.17,12.43-2.66,5.39-4.25,11.12-5.12,17.08-.44,3.05-.75,6.09-.82,9.17-.01.52,0,1.07-.12,1.57-.4,1.62-1.84,2.66-3.49,2.57-1.59-.09-2.79-1.13-3.18-2.96Z"/>
  <path class="cls-5" d="M470.05,237.92c-.52-2.08-.75-4.26-.87-6.45-.11-2.07.98-3.36,2.94-3.67,1.67-.26,3.14.63,3.65,2.27.16.5.27,1.03.3,1.55.21,2.99.71,5.93,1.55,8.8.38,1.29.1,2.46-.78,3.43-1.68,1.86-4.63,1.35-5.59-1.01-.63-1.54-1.13-3.15-1.21-4.91Z"/>
  <path class="cls-5" d="M474.11,308.48c-1.03-6.15.6-11.41,5.13-15.71.83-.79,1.81-1.37,2.85-1.81,1.53-.65,3.16-.15,4.15,1.24.86,1.2.73,2.89-.38,4.09-.35.37-.83.62-1.24.94-2.49,1.92-3.88,4.42-3.96,7.61-.03,1.34.21,2.62.84,3.81.16.31.34.61.49.93.88,1.84.44,3.75-1.06,4.61-1.76,1-3.58.59-4.81-1.14-.97-1.37-1.63-2.9-2.02-4.56Z"/>
  <path class="cls-1" d="M165.9,149.88c.62,4.01-.47,7.51-3.36,10.29-3.34,3.2-10.92,2.24-12.41-4.23-.39-1.71-.44-3.49-.06-5.23.66-3.03,2.44-4.95,5.48-5.67,2-.47,3.97-.36,5.94.15,2.45.63,3.93,2.16,4.42,4.69Z"/>
</svg>