<?xml version="1.0" encoding="UTF-8"?>
<svg id="Layer_1" data-name="Layer 1" xmlns="http://www.w3.org/2000/svg" viewBox="0 0 882.2 356.62">
  <defs>
    <style>
      .cls-1 {
        fill: #dd9c84;
      }
    </style>
  </defs>
  <path class="cls-1" d="M311.81,69.77c-5.09,7.62-11.5,14.68-13.66,23.68,14.1-.73,26.3-10.77,31.87-23.35l7.39,3.73,26.59,6.33c3.4,2.19-2.41,4.54-3.62,5.97-3.74,4.42-4.77,8.17,2.11,8.28,14.07.22,16.3-8.51,23.75-11.08,3.38-1.17,8.4-.85,11.97-1.84,13.16-3.64,25.88-9.83,35.88-19.34,2.81-2.67,10.77-11.28,8.31-15.25-.56-.91-17.53-6.81-20.01-7.59-1.81-.57-3.72-.61-5.31-1.06-8.36-2.38-16.65-4.63-25.25-6.08-3.38-.57-7.22.3-10.1-.52-5.31-1.51-9.58-9.14-19.45-10.27-19.9-2.29-5.09,6.43-3.09,10.52,2.76,5.68-2.24,4.18-5.71,5.93-9.07,4.56-18.15,12.5-24.14,20.69-3.54.55-10.84-5.89-13.94-7.24-1.82-.79-10.99-3.69-12.94-4.05-4.28-.79-8.5-.45-12.79-.48-3.33,2.99,21.84,19.42,22.15,23.03Z"/>
  <path class="cls-1" d="M564.69,152.93c-12.01-2.25-18.09,7.64-27.94,10.49-6.46-8.51-14.84-11.83-24.07-16.34,1.32-1.34,7.91-8.57,6.35-10.08-5.8-.35-12.65.43-17.24,4.23-1.69,1.4-2.29,4.4-4.75,5.11-2.64.77-6.04-.12-9.07.49-6.39,1.27-14.11,3.95-20.2,6.34-3.79,1.49-16.16,5.39-15.7,9.76,7.84,8.4,15.2,14.89,26.6,18.14,5.62,1.6,12.41,1.35,17.23,2.95,7.08,2.35,8.19,8.5,19.47,7.19,9-1.05-4.67-6.9-2.71-9.59l22.86-8.49c2.05.03,6.08,6.38,8.49,8.45,5.31,4.57,11.37,7.42,18.55,6.39,2.58-2.5-13-15.38-12.66-17.37,5.06-5.82,13.01-9.33,14.78-17.67Z"/>
  <path class="cls-1" d="M846.33,180.85c-7.43-2.47-16.55-2.64-22.73-4.88-4.34-1.57-5.8-5.12-11.98-5.03-7.42.1,2.54,6.14.51,8.52-5.97-1.43-13.98,9.8-16.68,10.49-2.61.67-6.58-3.06-9.39-4.05-1.56-.55-10.37-2.73-11.09-2.17l8.07,10.5,3.59,2.76c.06,1.48-12.31,11.84-6.79,13.24,4.76,1.21,12.91-7.2,15.88-10.54.94-1.06,1.72-4.04,2.59-3.21-.28,4.9,14.3,5.71,14.88,6.37.71,2.77-4.1,3.45-2.7,6.37,2.87,6,13.56-3.99,16.27-5.03,9.43-3.62,18.32-2.92,26.28-11.95,7.72-8.76,1.31-8.73-6.71-11.39Z"/>
  <path class="cls-1" d="M143.01,222.46c-.71-.58-11.81-4.19-13.81-4.77-2.48-.71-4.96-1.41-7.43-2.12-2.66-.77-7.11-.44-9.8-1.35-4.38-1.49-8.24-6.89-14.62-5.01l3.18,8.47c-4.98-1.22-14.54,11.38-15.5,11.61-2.04.49-14.85-8.93-19.53-6.28-1.89,4.96,10.51,10.38,10.65,11.18.6,3.41-8.04,8.38-7.47,13.24,6.22,3.42,16.55-11.28,17.62-11.54,1.69-.41,13.18,5.3,16.35,5.18l-3.18,4.78c3.19,7.22,11.44-1.52,14.95-3.16,1.29-.6,2.44-.33,3.1-.58,3.08-1.17,6.52-1.38,8.5-2.12,3.9-1.46,22.92-12.69,17-17.53Z"/>
  <path class="cls-1" d="M670.89,252.76c-4.5-1.53-13.12,5.97-16.24,5.17-1.22-.32-8.68-7.12-11.37-7.85l3.19-4.75c-6.23-1.79-9.01,2.47-13.49,4.02-7.09,2.45-14.45,4.07-21.56,7.16-.92.4-2.89.18-2.11,2.07.52,1.25,7.2,7.19,8.81,8.18,5.63,3.44,10.03,2.76,15.61,4.56,4.07,1.31,5.45,5.16,11.67,2.66.37-2.66-3.85-3.66-1.02-5.79.85-.64,9.19-3.78,10.12-3.74,1.28.05,9.57,9.74,14.25,7.41,1.33-1.13-6.35-8.47-6.35-9.02,0-.67,9.19-6.78,8.47-10.08Z"/>
  <path class="cls-1" d="M319.91,137.02c-.15-3.6-5.39-5.26-5.29-9.05.09-3.17,6.51-5.31,6.35-8.99-.58-.49-7.58.36-8.49,1.06-.48.37-1.33,4.63-5.79,4.3-3.46-.25-3.3-3.92-3.77-4.3-1.23-.99-8.17-3.22-8.51-4.8-.33-1.56,2.76-2.74,2.13-4.75l-3.72-.02-31.12,11.88c-3.94,6.85,17.78,13.49,22.1,14.68,2.47.68,8.26-.37,7.43,3.19,1.04-.76,3.15-.63,3.96-1.33,2.66-2.32,3.08-8.53,10.46-9.32,2.15-.23,1.65,2,3.02,3.26,3.37,3.1,6.4,5.01,11.23,4.2Z"/>
  <path class="cls-1" d="M118.47,303.01c.07-.78-.83-1.32-.82-1.41-4.23.34-8.31,4.74-11.68,4.25-6.57-.97-5.52-4.79-6.37-5.31-.48-.29-5.05-.23-6.37-1.07-.63-.89,1.53-5.01,2.12-6.36-5.33-1.58-8.22,3.4-11.74,4.72-3.19,1.2-21.24,4.18-22.22,7.56-1.99,6.85,17.04,11.91,21.21,13.2,3.52,1.09,5.64,2.94,6.37,3.19,1.21.41,3.79-.28,5.3,0l-1.06-6.36c2.32-.2,3.01-.65,5.21-1.27,3.56-1,4.28-1.72,5.37-2.46,1.69-1.16,3.17.65,3.87,2.62.34.95,1.11,1.74,2.08,2,1.41.39,2.14,2.11,2.59,2.3.89.37,1.95.59,3.01.76.99.16,1.8-.77,1.53-1.74-.61-2.19-1.33-4.55-1.44-4.8-.66-1.47-.81-2.43-2.98-3.13,1.8-.85,5.68-3.07,6.01-6.68Z"/>
  <path class="cls-1" d="M343.93,313.06c-2.63-.77-6.45-5.83-11.37-4.02-.64,2.01,2.48,3.19,2.13,4.73-.12.52-8.05,6.21-8.56,6.43-3.56,1.54-9.07-4.17-12.68-.55,1.33,2.61,8.12,5.17,6.23,8.36-.74,1.25-2.32-.66-4.11,5.44,5.83,1.47,7.3-6.58,12.09-6.37.53.02,7.81,1.82,8.1,2.13.29.31-3.4,6.55,3.47,5.13,2.54-.53,3.57-2.89,5.04-3.5,1.91-.79,4.05-.25,5.5-.87,5.82-2.49,13.49-5.41,14.64-12.43-4.62-1.01-8.95-2.8-13.54-3.99-2.23-.58-4.8.14-6.94-.49Z"/>
  <path class="cls-1" d="M69.83,143.37c-1.43-1.86-4.71-4.33-4.32-6.83.06-.39,6.75-3.54,4.32-5.91-1.92-1.88-7.1,3.94-10.87,2.99-.61-.15-7.54-4.73-7.78-5.13-1.14-1.86,3.45-6.19-3.69-3.76-1.85.63-3.29,2.57-5.24,3.25-4.07,1.42-12.8,2.18-15.92,5.32-3,3.03,5.37,7.18,7.72,8.15,4.72,1.94,10.42,2.17,15.08,5.11,3.18.74.78-4.42,1.64-5.28,2.83.8,5.99-2.18,7.95-2.15,2.33.03,4.77,4.82,7.94,5.3,1.98.3,2.01-.37,3.19-1.06Z"/>
  <path class="cls-1" d="M231.31,295.7c-2.24-.61-4.81-.08-6.74-.69-1.59-.5-2.18-2.45-4.49-2.94-6.42-1.37-1.9,2.31-3.09,4.22-.22.36-6.27,5.05-6.68,5.17-3.36.94-6.34-2.94-9.85-1.97-.6,2.76,3.83,4.2,4.13,5.99.31,1.83-3.73,4.26-3.07,6.75,3.65.78,7.12-5.76,9.17-6.16.39-.08,7.47,1.71,7.72,2.02,1.26,1.53-2.28,5.57,3.34,3.67,5.17-1.75,3.26-2.01,9.5-2.71,6.24-.7,5.32-3.49,6.37-4.25l2.12-1.06c.55-.39.79-.86,1.06-1.06,1.78-5.23-5.83-5.97-9.49-6.97Z"/>
  <path class="cls-1" d="M449.99,326.67c-2.55-.75-6.93-3.41-4.23-5.94-.74-.6-17.38,4.64-17.99,5.36-4.84,5.73,15.96,10.33,16.88,9.42.37-.37-1.33-4.19,4.98-4.13,3.75.04,4.01,3.78,7.81,3.14.62-2.05-2.33-3-2.05-4.64.25-1.46,3.81-2.49,3.11-4.9-3.05-.99-5.96,2.44-8.51,1.7Z"/>
  <path class="cls-1" d="M413.9,213.46c-5.03-1.11-9.86-3.05-14.87-4.25-6.87-1.65-14.44-1.92-20.49-3.41-6.01-1.48-10.89-10.3-19.63-6.4-4.08,1.82,5.04,6.03,4.01,9.8-6.34-1.21-15.74,11.76-18.82,12.6-4.84,1.31-16.96-8.88-23.65-6.21.73,6.37,7.04,11.72,12.74,13.82.58.84-10.26,12.68-10.52,14.44-.64,4.32,8.3.85,10.42-.23,3.95-2.01,11.58-11.71,12.42-11.88,4.24-.83,16.38,5.18,20.6,6.15l-3.19,7.42c5.65.43,10.26-.55,14.85-3.78,1.19-.83.97-2.5,1.08-2.59.72-.62,14.16-3.81,18.05-5.31.82-.31,2.74.22,4.24-.49,8.25-3.88,13.51-10.34,15.93-18.63h-3.19c.02-.33.06-.75,0-1.06Z"/>
  <path class="cls-1" d="M687.05,118.19c-5.22-1.41-10.99-1.52-15.37-2.68-4.04-1.07-8.7-7.05-14.59-5.05l3.19,8.48c-7.37-1.84-12.39,8.94-16.97,10.2-3.84,1.06-6.8-3.89-9.29-4.66-1.52-.47-7.38-1.17-9.33-1.31-1.57-.11-1.92-.12-1.61,1.62.66,3.68,10.64,9.69,10.39,12.75-.11,1.32-8.14,7.2-6.11,11.13.58.62,8.18-1.96,9.47-2.73,2.56-1.52,7.35-8.58,8.13-8.76,3.34-.8,12.18,4.53,16.37,4.07.28.33-.34,2.57-1,4.53-.36,1.07.83,1.98,1.77,1.36,2.91-1.92,6.81-4.95,7.35-4.89,7.61.83,7.15.83,9.93.05,2.8-.79,10.69-2.84,12.72-3.74,2.59-1.14,13.57-11.19,11.25-14.38-1.04-1.44-13.66-5.3-16.31-6.01Z"/>
</svg>