<?xml version="1.0" encoding="UTF-8"?>
<svg id="Layer_1" data-name="Layer 1" xmlns="http://www.w3.org/2000/svg" viewBox="0 0 884.13 225.12">
  <defs>
    <style>
      .cls-1 {
        fill: #a3aa61;
      }

      .cls-2 {
        fill: #fdbe15;
      }

      .cls-3 {
        fill: #fdbf16;
      }

      .cls-4 {
        fill: #c8729c;
      }

      .cls-5 {
        fill: #6ebfc5;
      }

      .cls-6 {
        fill: #fdbe14;
      }

      .cls-7 {
        fill: #f58975;
      }
    </style>
  </defs>
  <path class="cls-2" d="M375.58,165.02c.67-.73,2.13-6.77,1.82-7.08-14.74,5.06-28.1,5.8-42.02-2.09-34.78-19.72-33.03-75.4,4.24-91.15,38.87-16.42,73.15,21.87,63.45,60.21-.75,2.97-4.33,9.59-4.44,10.9-.06.7,4.67,10.17,5.29,13.02,5.26,24.29-8.71,48.45-35,48.83-4.82.07-9.18-1.63-14.39-.68-4.29.79-6.78,4.98-10.28,5.91-10.03,2.66-19.83-5.83-18.58-16.14,1.24-10.24,14.18-16.49,23.21-18.09,5.77-1.02,23.55-.18,26.71-3.64ZM356.18,90.1c-26.14,2.33-24.06,45.96,5.36,41.85,22.72-3.18,19.63-44.08-5.36-41.85Z"/>
  <path class="cls-4" d="M729.36,61.03c6.38-.6,13.59.82,19.33,3.66,1.98.98,6.42,4.91,7.95,4.97,1.17.04,7.56-4.54,9.84-5.52,24.23-10.46,50.11,7.16,52.13,32.64,1,12.67,1.38,39.53-.03,51.84-1.57,13.72-20.11,16.24-25.82,3.96-5.04-10.85.33-40.56-1.76-54.1-1.6-10.38-17.14-10.56-20.02-.69-1.56,15.72,1.5,33.79-.16,49.21-2.04,18.86-26.01,16.77-27.57.84-1.45-14.84,1.94-33.22-.03-47.73-1.71-12.57-18.79-13.33-20.76.14-2.11,14.46,1.13,32.71-.18,47.58-1.52,17.26-25.87,17.47-27.58-2.43-1.08-12.52-1.23-45.02,1.88-56.46,3.94-14.5,17.72-26.5,32.79-27.92Z"/>
  <path class="cls-7" d="M163.51,61.02c6.42-.66,13.01.67,18.82,3.39,2.31,1.08,7.73,5.48,9.25,5.33.78-.08,8.35-5.5,11.34-6.55,20.41-7.17,41.18,4.01,48.02,24.09,3.74,10.98,3.83,46.63,2.6,58.9-1.92,19.12-25.9,18.49-27.55,1.67-1.46-14.84,1.95-33.23-.03-47.73-1.62-11.87-16.72-13.04-20.63-2.15-1.95,15.9,1.41,34.24-.35,49.84-2,17.77-26.05,16.27-27.56-.78-1.32-14.91,1.92-33.26-.04-47.72-1.51-11.17-16.91-11.9-19.98-1.5-1.35,15.43,1.15,32.35-.16,47.6-.43,5.04-2.22,9.97-6.56,12.87-8.17,5.47-19.81.19-21.01-9.64-1.47-12.06-1-40.13,0-52.67,1.35-17.15,16.65-33.18,33.84-34.96Z"/>
  <path class="cls-5" d="M63.15,61.03c20.12-1.9,39.59,10.74,47.26,29.16,4.9,11.76,5.51,45.44,3.92,58.45-1.12,9.21-12.63,15.36-20.67,10.11-1.05-.69-3.36-3.91-4.03-3.91-.57,0-7.67,4.3-10.16,5.09-28.02,8.84-56.13-14.18-58.96-42.16-2.69-26.63,14.82-54.11,42.64-56.73ZM65.57,90.12c-25.52,2.79-22.12,43.95,2.9,42.67,26.23-1.34,23.43-45.54-2.9-42.67Z"/>
  <path class="cls-1" d="M425.75,62.59c8.85-1.82,16.4,3.32,17.25,12.33,1.42,15.12-6.95,54.38,14.92,57.12,28.72,3.6,17.78-41.13,19.83-57.92,1.92-15.68,25.84-16.97,27.57,3.23.85,9.95.65,26.4,0,36.49-4.18,65.4-85.54,61.84-89.88.77-.58-8.11-1.11-36.94,1.23-43.28,1.29-3.49,5.33-7.97,9.07-8.74Z"/>
  <path class="cls-7" d="M601.41,62.59c6.86-1.42,13.33,1.15,16.32,7.59,6.93,14.94-7.58,55.09,13.27,61.21,31.32,9.2,20.63-40.34,22.44-56.44,1.78-15.92,25.83-18.42,27.55,1.59,1.15,13.33,1.09,41.52-2.89,53.83-13.5,41.75-67.65,41.28-82.96,1.27-4.47-11.7-4.48-43.6-3.25-56.71.48-5.07,4.23-11.24,9.53-12.33Z"/>
  <path class="cls-5" d="M560.96,62.62c7.88-1.01,16.98-.99,20.59,7.33,3.7,8.54-.34,19.23-9.82,21.25-2.35.5-4.59.08-6.74.55-25.84,5.59-16.71,37.21-18.37,56.1-1.51,17.15-25.28,17.08-27.47-.93-3.87-31.91,2.16-79.21,41.81-84.3Z"/>
  <path class="cls-4" d="M280.04,62.59c9.03-1.86,15.34,2.79,17.24,11.53l-.07,75.25c-4.52,16.41-25.23,14.02-27.48-2.38,2.14-22.38-2.89-50.26.07-71.98.66-4.87,5.29-11.41,10.23-12.43Z"/>
  <path class="cls-6" d="M845.87,62.6c9.04-1.87,15.94,3.52,17.22,12.36-1.93,23,2.61,50.28-.09,72.77-2.1,17.48-25.67,16.43-27.43.09-2.48-22.92,1.8-50.21.07-73.59.41-4.55,5.9-10.72,10.23-11.62Z"/>
  <path class="cls-3" d="M845.88,22.12c22.06-4.1,24.1,29.49,4.57,31.34-18.02,1.71-21.78-28.14-4.57-31.34Z"/>
  <path class="cls-4" d="M280.04,22.12c17.27-3.57,25.07,19.89,11.02,28.83-11.71,7.45-23.73-3.83-22.06-16.4.71-5.32,5.7-11.33,11.03-12.43Z"/>
</svg>