<?xml version="1.0" encoding="UTF-8"?>
<svg id="Layer_1" data-name="Layer 1" xmlns="http://www.w3.org/2000/svg" viewBox="0 0 596.96 231.32">
  <defs>
    <style>
      .cls-1 {
        fill: #f7c650;
      }

      .cls-2 {
        fill: #74ae9f;
      }
    </style>
  </defs>
  <g>
    <g>
      <path class="cls-2" d="M147.61,128.5c-.32,2.96-1.09,9.45-2.66,18.99-.71,4.29-.56,8.3-.54,10.74.02,2.93-.69,6.86-1.2,9.68-.86,4.79-3.65,8.65-7.13,10.7-1,1.44-2.8,2.41-5.39,2.89-.39.09-.58.14-.97.22-1.24,1.39-1.31,1.05-3.15,1.29-2.44.32-4.88-.6-8.49-1.99-4.29-1.66-6.76-5-7.26-10.06.04-1.88.6-4.56,1.68-8.03,1.08-3.46,1.63-6.14,1.67-8.02,1.3-2.84,2.11-5.5,2.43-8.02.26-1.97.41-4.78.48-8.43.06-3.66.21-6.36.44-8.11-.04-1.53-.07-2.3-.11-3.84-10.29.13-16.9.19-19.78.34-7.41.28-13.94,1.07-19.61,2.41-5.13,7.56-9.56,16.49-13.28,26.81-1.18,1.37-2.2,4.01-3.19,7.68-1.19,4.42-2.24,7.33-2.87,8.57-4.11,6.02-14.86,9.67-20.91,6.44-2.07-1.1-3.95-4.86-4.79-7.26-1.48-4.18-2.35-6.6-2.66-7.21,4.19-9.64,12.29-23.63,23.87-42.17-.61-1.79-.99-3.97-1.13-6.58.05-1.44.52-3.4,1.37-5.88.86-2.47,1.33-4.49,1.4-6.05,3.31-1.98,7.19-3.54,11.63-4.7,1.59-2.18,3.75-5.62,6.45-10.31,1.65-2.07,5.12-6.57,10.31-13.56,1.62-2.65,4.43-6.27,8.39-10.9.68-.57,1.58-1.32,2.7-2.26,4.8-5.73,7.9-9.34,9.38-10.8,3.74-3.69,7.85-6.69,11.49-7.56,3.27-.78,7.1-.07,8.76-.17.79-.05,2-.41,3.04-.27,1.13.14,2.46.73,3.99,1.75,1.54,1.02,2.91,1.6,4.14,1.75,4.73,10.89,7.96,20.11,9.51,27.7.9,2.31,1.56,5.43,2,9.35-.05,1.33.12,3.93.61,7.71.41,3.13.34,5.77.04,7.65-.42,2.59.44,5.7.9,8.07.7,3.59-.67,10.2-1.21,16.65-.09,1.03-.14,2.7-.36,4.78ZM116.2,92.71c-.37-4.6-1.15-8.65-2.33-12.14-2.09,2.27-5.65,6.57-10.75,12.86,2.91-.15,7.28-.37,13.09-.72Z"/>
      <path class="cls-2" d="M125.7,192.3c-4.08,0-7.43-1.29-10.95-2.65-7.64-2.96-12.3-9.27-13.14-17.78l-.05-.56v-.56c.07-2.82.74-6.18,2.11-10.58,1.17-3.75,1.25-5.2,1.25-5.45l.04-1.93.81-1.76c.9-1.96,1.45-3.75,1.66-5.34.22-1.73.34-4.2.4-7.41.01-.84.04-1.64.06-2.4-4.74.06-8,.11-9.79.2-5.37.21-10.18.69-14.41,1.45-3.88,6.27-7.31,13.54-10.23,21.67l-.58,1.61-1.11,1.28.02-.02s-.48,1.06-1.3,4.09c-.88,3.26-2.21,7.73-3.57,10.37l-.59.99c-6.24,9.15-21.98,15.24-32.92,9.38-5.36-2.86-8.2-9.59-9.16-12.36-1.2-3.39-1.95-5.52-2.3-6.33l-1.59-3.69,1.48-3.94c3.86-8.9,10.83-21.34,22.46-40.1-.23-1.38-.38-2.86-.47-4.44.08-3.25.68-5.96,1.87-9.41.83-2.4.9-3.38.9-3.48l.24-4.94,4.24-2.54c3.13-1.88,6.69-3.46,10.61-4.72,1.02-1.59,2.39-3.82,4.2-6.97l.79-1.17c1.62-2.03,5.02-6.45,10.12-13.3,1.41-2.37,4.35-6.21,8.79-11.39l3.17-2.81c5.29-6.3,7.87-9.26,9.44-10.81,5.53-5.44,10.86-8.79,15.86-9.98,3.59-.84,7.07-.62,9.36-.47l1.15.06c.86-.19,2.61-.48,4.66-.19,2.5.31,5.11,1.36,7.89,3.22l5.28.62,2.2,5.13c5,11.5,8.25,20.93,9.94,28.82,1.05,2.95,1.8,6.52,2.29,10.89l.08.69-.02.69s-.05,1.63.54,6.16c.48,3.77.48,7.33,0,10.32-.05.6.33,2.37.56,3.43l.28,1.39c.76,3.87.21,8.25-.42,13.34-.24,1.9-.49,3.88-.65,5.85l-.07,1c-.06,1.08-.14,2.44-.32,4h0c-.33,3.05-1.12,9.71-2.73,19.5-.49,2.98-.46,5.99-.43,8.18v1c.03,3.7-.73,8.01-1.29,11.16-1.23,6.86-4.88,12.66-10.13,16.32-1.7,1.76-4.3,3.57-8.21,4.58-1.67,1.14-3.48,1.73-5.76,1.91-.89.12-1.74.17-2.57.17ZM126.79,173.69c-.06,0-.12.01-.19.02l.19-.02ZM120.11,170.68c.22,1.29.65,1.46,1.31,1.71,1,.39,2.39.92,3.33,1.22l4.41-1.26.47-.68,1.73-1.02c1.06-.62,2.33-2.1,2.73-4.37.44-2.49,1.06-5.97,1.05-7.99-.04-3.62-.09-7.72.66-12.3,1.53-9.28,2.29-15.6,2.6-18.48h0c.13-1.22.19-2.28.24-3.12l.09-1.44c.19-2.21.46-4.45.73-6.59.32-2.53.8-6.35.62-7.54l-.22-1.08c-.57-2.68-1.35-6.35-.72-10.22.07-.44.28-2.14-.08-4.99-.33-2.49-.7-5.88-.7-8.41-.42-3.52-.97-5.45-1.37-6.47l-.44-1.5c-1.22-5.96-3.65-13.27-7.38-22.23-.76-.39-1.53-.84-2.3-1.36.28-.12.53-.19.7-.22-.99.15-1.59.23-2.11.26-.76.04-1.92,0-3.28-.08-1.2-.07-2.99-.2-3.87.01-.94.22-3.49,1.55-7.14,5.15-1.59,1.57-6.81,7.8-8.78,10.15l-3.26,2.92c-3.42,4.02-5.79,7.09-7.04,9.13-5.29,7.17-8.71,11.63-10.53,13.94-2.7,4.67-4.88,8.13-6.64,10.54l-1.95,2.67-3.2.83c-2.07.54-3.99,1.18-5.71,1.92-.25.92-.56,1.89-.91,2.91-.8,2.32-.87,3.18-.87,3.21.12,1.28.42,2.55.65,3.24l1.41,4.15-2.32,3.72c-10.68,17.1-17.66,29.2-21.69,37.6.4,1.08.85,2.34,1.36,3.8.3.86.73,1.73,1.07,2.32,1.94.14,6.09-1.16,7.89-3.17.37-.93,1.06-2.92,1.94-6.21,1.18-4.36,2.39-7.39,3.88-9.67,3.85-10.44,8.52-19.73,13.87-27.62l2.02-2.98,3.51-.83c6.18-1.46,13.37-2.35,21.38-2.66,2.23-.11,6.99-.18,14.13-.26l14.98-.19.4,13.69-.1.75c-.2,1.51-.31,3.86-.36,7.03-.08,4.11-.27,7.25-.56,9.46-.38,2.94-1.22,5.99-2.5,9.09-.26,2.39-.9,5.15-1.95,8.53-.86,2.77-1.13,4.28-1.22,5ZM82.82,103.77l13.11-16.17c5.28-6.51,8.97-10.95,11.13-13.3l10.57-11.49,5,14.79c1.42,4.21,2.36,9.04,2.79,14.36l.76,9.41-9.42.57c-4.85.29-8.69.5-11.54.64l-22.41,1.18Z"/>
    </g>
    <g>
      <path class="cls-2" d="M247.55,131.09c-.4,11.76-1.79,22.36-4.4,31.59-4,14.15-10.09,21.16-17.89,20.82-6.45-.28-13.4-3.77-20.47-10.48-5.87-5.57-10.69-12.09-14.45-19.3-.17,2.19-.28,5.55-.36,10.07-.08,4.52-.19,7.94-.37,10.24-.41,5.59-2.5,10.89-6.35,15.78-4.18,5.32-8.91,7.78-14.05,7.35-4.31-.36-7.49-2.2-9.51-5.48-2.02-3.28-2.8-7.22-2.36-11.82.25-2.63.91-6.47,1.96-11.51,1.05-5.04,1.7-8.89,1.95-11.52.54-5.69,1.44-14.29,2.69-25.8,1.25-11.49,2.15-20.09,2.7-25.79.76-8,4.63-15.21,11.44-21.71,4.15-1.75,6.98-2.58,8.52-2.47,1.73.14,4.31,1.22,7.76,3.23,3.15,4.42,6.9,12.46,11.36,24.09,4.89,12.75,8.96,21.58,12.01,26.48,1.75-24.61,2.7-38.23,2.84-40.88.06-.99-.4-2.88-1.35-5.69-.96-2.81-1.38-5.09-1.28-6.85.46-7.79,2.28-14.66,5.47-20.39,3.82-6.85,8.9-10.16,15.1-9.93,8.46.32,12.39,9.16,11.81,26.66-.12,3.52-.55,8.82-1.32,15.91-.78,7.09-1.22,12.39-1.34,15.91-.08,2.42-.11,6.01-.06,10.74.04,4.73.02,8.32-.06,10.74Z"/>
      <path class="cls-2" d="M170.36,206.46c-.66,0-1.3-.03-1.91-.08-7.28-.61-13.03-4.01-16.62-9.84-3.09-5.03-4.33-10.94-3.69-17.58.28-2.93.97-7.03,2.11-12.51,1.22-5.84,1.64-8.93,1.79-10.5.55-5.72,1.45-14.37,2.71-25.92,1.24-11.44,2.15-19.99,2.68-25.67.97-10.15,5.77-19.41,14.26-27.53l1.22-1.17,1.56-.66c5.9-2.5,9.57-3.43,12.83-3.17,3.26.25,6.87,1.63,11.72,4.47l1.71,1,1.15,1.61c2.77,3.88,5.76,9.71,9.24,18.03.11-1.7.19-2.85.22-3.44-.12.33-.43-.91-.88-2.22-1.36-3.97-1.93-7.36-1.75-10.37.55-9.24,2.77-17.43,6.62-24.34,7.4-13.27,17.91-14.8,23.54-14.68,9.98.38,21.67,6.96,20.71,36.21-.13,3.68-.57,9.21-1.37,16.6-.75,6.79-1.18,11.86-1.3,15.23-.08,2.32-.1,5.77-.05,10.33.04,4.92.02,8.64-.06,11.15h0c-.44,13.01-1.99,24.06-4.74,33.8-6.62,23.47-18.46,27.9-27.2,27.55-8.85-.38-17.75-4.76-26.44-13.01-.08-.08-.16-.15-.24-.23-1.19,5.72-3.75,11.09-7.64,16.04-6.93,8.81-14.5,10.93-20.18,10.93ZM183.29,91.4c-4.5,4.65-6.94,9.48-7.43,14.72-.55,5.73-1.46,14.36-2.71,25.91-1.24,11.44-2.14,20.01-2.68,25.67-.28,2.99-.97,7.09-2.1,12.52-.99,4.74-1.59,8.26-1.81,10.5-.25,2.59.08,4.58,1.02,6.11.25.4.59.95,2.4,1.1.71.06,2.8.23,6-3.85,2.67-3.4,4.11-6.91,4.4-10.74.16-2.19.27-5.43.34-9.72.08-4.76.21-8.29.38-10.6l17.43-3.59c3.35,6.43,7.6,12.1,12.61,16.86,5.29,5.02,10.3,7.76,14.51,7.95,2.4.05,5.8-4.21,8.58-14.09,2.3-8.17,3.67-18.05,4.05-29.39h0c.08-2.33.09-5.79.05-10.35-.05-4.9-.02-8.62.06-11.14.13-3.81.59-9.24,1.4-16.6.74-6.78,1.16-11.85,1.27-15.22.47-14.23-2.54-17.04-2.58-17.06-1.4-.05-4.03-.17-7.01,5.16-2.49,4.45-3.94,9.99-4.32,16.43h0s0,.96.8,3.31c1.43,4.22,1.97,6.88,1.84,9.19-.14,2.63-1.1,16.31-2.85,41.02l-17.09,4.23c-3.53-5.68-7.84-15.12-12.8-28.06-3.67-9.56-6.75-16.41-9.2-20.42-.84-.44-1.43-.7-1.81-.84-.52.14-1.41.42-2.79.97Z"/>
    </g>
    <g>
      <path class="cls-2" d="M360.14,145.78c.85,16.28-3.59,29.46-13.24,39.37-9.18,9.43-21.73,14.61-37.38,14.88-13.03.23-24.38-4.13-33.78-12.87-9.89-9.21-14.57-20.72-14.28-34.37.09-4.19.62-9.15,1.52-14.85,1.41-8.87,6.45-19.43,14.94-31.38,8.24-11.6,17.51-21.67,27.48-30.03,10.85-9.1,20.18-13.85,28.13-14.15,2.08-.08,6.2-.19,8.86,1.11,1.22.6,3.3,3.05,5.8,5.68,4.46,6.06,6.97,13.8,7.44,23.26.32,6.6-.2,12.16-1.54,16.62-1.54,5.12-4.37,8.51-7.3,8.63-4.85.21-10.42-4.28-14.46-11.3.4-2.98.57-5.09.53-6.3-.06-1.98-.85-3.77-2.36-5.37-7.46.93-19.37,12.12-36.96,33.15-4.77,5.75-7.21,13.07-7.24,21.99,0,3.3,3.52,6.86,10.54,10.2,6.22,2.96,11.39,4.32,15.07,4.24,3.27-.06,6.76-.78,10.39-2.06,4.82-1.7,7.25-3.86,7.17-6.49-1.98-1.7-4.44-2.5-7.38-2.42-2.23.06-5.19.77-8.88,2.11-3.69,1.34-6.01,2.02-6.92,2.03-4.48.07-8.23-2.13-10.88-6.48-2.27-3.74-3.35-8.35-3.36-13.52,0-3.63,2.86-7.82,8.49-12.62,5.24-4.46,9.64-7.02,13.15-7.49,2.14-.28,5.37-.67,9.61-1.23,12.13,3.4,20.61,6.52,25.33,9.6,7.17,4.61,11.04,11.28,11.5,20.07Z"/>
      <path class="cls-2" d="M308.52,209.29c-14.99,0-28.13-5.16-39.08-15.36-11.78-10.97-17.58-24.88-17.23-41.34.09-4.5.63-9.78,1.64-16.11,1.63-10.27,7.19-22.14,16.53-35.28,8.62-12.12,18.4-22.81,29.08-31.77,12.63-10.58,23.66-15.92,33.72-16.3,3.96-.14,9-.05,13.28,2.05,2.48,1.21,4.31,3.18,6.85,5.91l2.34,2.59c5.57,7.56,8.67,17.07,9.23,28.28.37,7.62-.27,14.26-1.92,19.74-1.14,3.83-2.83,7.04-4.92,9.52,6.92,6.05,10.82,14.29,11.32,24.06.99,18.9-4.33,34.47-15.84,46.3-11.12,11.42-25.88,17.37-43.85,17.68-.39,0-.78,0-1.16,0ZM335.54,71.59c-.47,0-1.02,0-1.64.03-3.94.15-11.05,2.35-22.55,11.99-9.47,7.94-18.19,17.47-25.89,28.3-7.56,10.65-12.18,20.15-13.34,27.47-.86,5.41-1.34,9.99-1.41,13.59-.24,11.12,3.47,20.08,11.33,27.4,7.71,7.18,16.69,10.53,27.31,10.39,12.92-.22,23.32-4.29,30.91-12.09,7.87-8.09,11.35-18.7,10.62-32.42h0c-.3-5.8-2.54-9.74-7.27-12.78-3.53-2.3-10.58-4.97-21.02-7.96l-7.68.98c-.11.01-2.53.38-8.37,5.36-4.69,3.99-5.27,5.94-5.28,5.96.04,3.21.72,6.15,2.06,8.35,1.25,2.05,2.14,2.06,2.83,2.03.06-.1,1.64-.65,3.88-1.47,4.81-1.74,8.55-2.58,11.82-2.66,5.29-.17,9.92,1.46,13.64,4.64l3.11,2.66.13,4.09c.12,3.99-1.45,11.31-13.34,15.51-4.67,1.64-9.14,2.5-13.31,2.58-5.6.02-11.8-1.62-19.21-5.13-10.51-4.99-15.83-11.24-15.82-18.57.04-11.05,3.19-20.43,9.37-27.88,20.9-24.97,32.93-35.18,42.94-36.43l4.67-.58,3.23,3.43c3.04,3.24,4.72,7.19,4.86,11.41.04,1.11-.02,2.52-.2,4.37,1.08,1.48,2.13,2.54,2.98,3.24.11-.3.23-.63.34-1,1.04-3.47,1.43-8.02,1.16-13.51-.36-7.29-2.16-13.29-5.36-17.82l-1.28-1.37c-.7-.75-1.31-1.44-1.84-1.97-.41-.06-1.15-.13-2.37-.13ZM337.35,71.2h0Z"/>
    </g>
    <g>
      <path class="cls-2" d="M478.32,154.63c.67,4.8.39,9.07-.87,12.8-2.04,5.62-3.23,9.34-3.51,11.16-4.33,3.82-7.46,5.84-9.33,6.08-2.49.33-5.16-.55-7.99-2.64-2.83-2.09-4.8-4.34-5.93-6.76-6.63-5.63-17.92-12.76-33.52-21.74.29,1.96,1.02,5.83,2.18,11.57.99,4.88,1.61,8.75,1.89,11.6.48,5.04-.14,9.79-1.95,14.13-2.11,5.06-5.37,8.21-9.6,9.36-1.26.22-3.54.64-6.88,1.26-4.57-1.5-7.7-5.16-9.4-11,.43-1.36.61-2.42.55-3.19-.03-.33-.04-.49-.07-.82-2.42-12.62-3.91-23.17-4.54-31.63-.3-4.06-.62-10.13-.96-18.23-.35-8.09-.67-14.17-.97-18.23-.44-6.03-1.06-11.68-1.83-16.92-1.4.99-2.85,2.02-4.35,3.06-1.5,1.05-3.04,1.63-4.6,1.73-2.73.19-7.18-1.35-8.93-4.03-2-3.05-2.4-8.56-2.59-11.76-.21-3.73.07-6.46.84-8.16.35-.79,1.39-2.3,3.13-4.51,1.74-2.21,2.93-3.51,3.58-3.88,6.08-3.95,13.96-8.2,23.57-12.79,11.07-5.3,19.01-8.29,23.98-8.83,11.54-1.25,19.61-1.33,24.24-.04,7.8,2.22,13.71,8.24,17.75,18.11.49,6.5.35,10.96-.4,13.4-.14.46-2.04,4.46-5.82,11.96-1.89,1.47-5.13,5.79-9.88,12.75-5.45,8-9.2,12.91-10.9,14.77,20.11,12.12,34.68,22.39,43.1,31.42ZM432.41,86.78c-2.86-1.11-8.13-1.23-15.84-.43-2.03.21-4.38.61-7.04,1.2.2,3.3.38,5.66.5,7.09.19,2.04.28,3.06.47,5.1.22,2.41.58,5.31,1.1,8.69,10.42-8.2,17.29-15.47,20.81-21.64Z"/>
      <path class="cls-2" d="M402.17,210.97l-2.24-.74c-5.24-1.72-12.17-6.1-15.4-17.21l-.78-2.68.83-2.67c.02-.08.04-.14.05-.19-2.31-12.34-3.85-23.16-4.51-32-.31-4.13-.63-10.3-.98-18.53-.34-7.96-.66-13.94-.95-17.94-.09-1.22-.19-2.43-.29-3.62-.21.02-.42.04-.63.05-5.5.39-13.49-2.35-17.31-8.2-3.03-4.63-3.77-10.83-4.08-16.29-.3-5.39.23-9.36,1.65-12.51.65-1.5,1.91-3.4,4.29-6.42,2.78-3.52,4.42-5.15,6.27-6.2,5.81-3.8,13.87-8.18,24.15-13.1,12.64-6.05,20.96-9.04,26.98-9.69,13.37-1.44,21.92-1.38,27.71.24,10.69,3.05,18.7,10.96,23.84,23.52l.66,2.81c.6,7.93.36,13.12-.78,16.83-.19.65-.47,1.63-6.39,13.39l-.94,1.87-1.64,1.28c-.44.39-2.26,2.36-7.92,10.67-1.76,2.58-3.42,4.95-4.93,7.06,17.3,10.88,28.93,19.75,36.26,27.61l1.98,2.13.41,2.89c.88,6.23.45,11.96-1.27,17.05-2.64,7.27-3.06,9.18-3.13,9.6l-.54,3.26-2.49,2.29c-6.02,5.3-10.28,7.79-14.24,8.31-4.98.63-9.89-.82-14.7-4.38-3.31-2.43-5.9-5.19-7.71-8.21-3.21-2.58-7.62-5.63-13.43-9.29.21,1.41.37,2.68.48,3.84.63,6.64-.25,12.9-2.62,18.58-4.07,9.75-10.79,13.39-15.71,14.72l-9.95,1.86ZM403.04,189.88c.41.89.84,1.48,1.23,1.88l3.85-.7c-.3.07,1.19-.35,2.63-3.81,1.19-2.85,1.62-6.1,1.27-9.68-.25-2.62-.84-6.17-1.74-10.64-1.22-5.99-1.97-10.03-2.27-12.08l-2.73-18.85,16.51,9.5c17.5,10.08,28.26,17.08,34.89,22.71l1.55,1.32.86,1.85c.31.68,1.09,1.78,3,3.19.48.35.84.57,1.11.71.52-.33,1.32-.89,2.44-1.79.65-2.25,1.64-5.21,3.1-9.21.51-1.5.73-3.38.66-5.52-7.6-7.4-20.11-16.26-38.97-27.62l-9.68-5.83,7.63-8.34c1.04-1.14,4.34-5.32,10.08-13.74,4.74-6.95,7.67-10.83,10.02-13.21,2.68-5.35,4.23-8.54,4.67-9.56-.06-.02.33-1.59-.07-7.94-2.85-6.35-6.51-10.09-11.17-11.42-1.79-.5-6.97-1.15-20.71.35-2.54.28-8.24,1.88-20.99,7.98-9.33,4.47-16.58,8.39-22.13,11.96-.45.47-1.02,1.18-1.74,2.1-.96,1.22-1.66,2.13-2.04,2.75h0c.08,0-.11,1.13.04,3.67.28,4.81.8,6.56,1.07,7.15-.09-.3.49-.1.81-.08l4.01-3.12,12.31-8.71,2.19,14.92c.81,5.5,1.45,11.41,1.9,17.58.3,4.13.63,10.3.98,18.51.33,7.98.65,13.96.94,17.95.61,8.25,2.1,18.54,4.4,30.56l.21,1.93c.09,1.01.04,2.09-.14,3.27ZM462.41,175.73h0ZM377.93,81.49c-.07.05-.14.09-.22.14.07-.03.14-.09.22-.14ZM378.32,81.16h0ZM404.85,125.52l-2.4-15.7c-.55-3.59-.93-6.67-1.17-9.24l-.47-5.11c-.13-1.5-.31-3.95-.52-7.36l-.49-7.89,7.72-1.71c3.07-.68,5.77-1.13,8.11-1.37,9.54-1,15.76-.69,20.12,1l10.04,3.88-5.34,9.34c-4.21,7.36-11.99,15.55-23.12,24.32l-12.47,9.83Z"/>
    </g>
    <g>
      <path class="cls-2" d="M532.57,111.39c.52,2.81,1.14,7.49,1.97,13.92.76,5.97,1.51,10.64,2.12,13.88,1.45,7.8,3.46,14.43,6.06,19.87.47,7.54.43,12.75-.1,15.65-1.27,5.84-4.62,9.28-10.02,10.25-7.48,1.34-13.28-3.37-17.28-14.09-1.7-4.51-3.58-13.02-5.63-25.52-.47-2.82-1.07-7.36-1.78-13.6-.66-5.8-1.24-10.35-1.78-13.6-.25-1.5-.37-2.25-.62-3.75-11.78-9.06-21.56-18.02-29.46-26.76-1.6-4.88-2.54-8.41-2.85-10.59-.67-4.69.52-9.2,3.51-13.56,2.99-4.36,6.53-6.86,10.67-7.53,2.92-.47,5.97,1.09,9.18,4.67.11.1,2.35,3.18,6.79,9.23,1.37,1.78,5.65,5.45,12.97,10.95,10.68-18.16,20.79-34.38,30.58-48.64,1.62-1.02,3.21-1.7,4.78-2.04,2.49-.55,8.54-.97,10.74.65,2.2,1.63,3.79,7.83,4.52,11.17.62,2.8.54,6.82-.27,12.08-.28,1.88-3.35,7.17-9.43,15.62-6.72,9.34-10.89,15.17-12.02,17.54-3.62,7.59-7.82,15.67-12.65,24.21Z"/>
      <path class="cls-2" d="M530.12,194.44c-7.24,0-17.2-3.52-23.47-20.34-1.94-5.16-3.88-13.83-6.09-27.26-.48-2.91-1.11-7.61-1.84-14.06-.64-5.6-1.2-10-1.72-13.16l-.02-.16c-10.69-8.44-20.02-17.04-27.78-25.63l-1.32-1.46-.61-1.87c-1.76-5.39-2.81-9.35-3.22-12.14-1-7.03.7-13.79,5.05-20.12,4.45-6.49,10.11-10.34,16.82-11.43,4.19-.69,10.57.05,17.22,7.27.52.51,1.07,1.27,3.58,4.69l4.1,5.59s-.47-.23,2.94,2.63c9.22-15.38,17.62-28.56,25.52-40.09l1.08-1.57,1.6-1.02c2.51-1.59,5.12-2.68,7.75-3.26,1.18-.25,11.86-2.44,18.21,2.24,3.68,2.72,6.1,7.69,8.07,16.62.89,3.98.83,9.05-.16,15.49-.28,1.83-.8,5.35-11.07,19.62-4.34,6.02-10.28,14.28-11.2,16.14-3.37,7.08-7.18,14.44-11.33,21.9.42,2.82.91,6.52,1.49,11.04.74,5.75,1.45,10.23,2.04,13.36,1.3,7.01,3.09,12.92,5.31,17.57l.78,1.62.11,1.8c.52,8.42.45,14.1-.23,17.87-2.13,9.89-8.32,16.06-17.48,17.71-1.22.22-2.61.37-4.12.37ZM484.25,82.88c7.47,8.05,16.51,16.18,26.91,24.18l2.89,2.22,1.22,7.35c.55,3.4,1.16,8.09,1.84,14.07.68,6.02,1.26,10.41,1.71,13.13,2.43,14.78,4.14,21.08,5.16,23.77,2.2,5.91,4.57,8.69,6.99,8.25,1.17-.21,2.02-.36,2.61-3.1.11-.64.43-3.57,0-11.42-2.55-5.78-4.57-12.65-6.02-20.46-.62-3.35-1.41-8.19-2.2-14.39-.8-6.19-1.38-10.69-1.88-13.4l-.62-3.32,1.66-2.94c4.56-8.06,8.72-16.01,12.35-23.63,1.44-3,4.85-7.83,12.87-18.97,5.79-8.05,7.48-11.33,7.89-12.22.76-5.27.42-7.49.29-8.06-.52-2.38-1-4-1.37-5.07-1.01.02-2.15.11-2.86.27-.14.03-.28.07-.43.12-8.82,12.97-18.3,28.11-28.95,46.21l-5.25,8.93-8.28-6.22c-11.73-8.81-13.91-11.62-14.73-12.68l-4.26-5.8c-1.17-1.6-1.94-2.64-2.3-3.13-.62-.67-1.09-1.07-1.4-1.31-.84.32-2.16,1.13-3.74,3.44-2.22,3.22-2.2,5.54-1.99,7.01.1.66.47,2.63,1.89,7.14ZM557.54,52.59v.07s0-.05,0-.07Z"/>
    </g>
  </g>
  <g>
    <path class="cls-1" d="M144.52,132.82c-.32,2.96-1.1,9.43-2.67,18.98-.71,4.31-.55,8.31-.54,10.74.02,2.93-.69,6.85-1.2,9.68-.85,4.79-3.65,8.64-7.14,10.7-1,1.44-2.8,2.41-5.38,2.89-.39.09-.59.13-.98.22-1.24,1.39-2.63,1.1-4.48,1.35-2.45.32-3.56-.65-7.17-2.05-4.29-1.66-6.76-5-7.26-10.06.04-1.88.6-4.56,1.68-8.03,1.08-3.47,1.63-6.15,1.67-8.04,1.3-2.82,2.11-5.5,2.44-8.01.25-1.97.41-4.78.47-8.43.07-3.65.22-6.35.45-8.1-.05-1.54-.07-2.31-.11-3.84-10.3.13-16.9.19-19.78.34-7.4.28-13.94,1.08-19.61,2.42-5.13,7.56-9.57,16.49-13.28,26.81-1.18,1.38-2.19,4.01-3.18,7.68-1.19,4.42-2.24,7.33-2.87,8.57-4.11,6.02-14.84,9.68-20.91,6.44-2.07-1.11-3.95-4.86-4.79-7.25-1.48-4.18-2.35-6.59-2.66-7.22,4.18-9.63,12.29-23.62,23.87-42.16-.61-1.78-.99-3.97-1.13-6.57.05-1.44.51-3.4,1.37-5.88.86-2.48,1.33-4.49,1.41-6.04,3.31-1.98,7.19-3.55,11.63-4.7,1.59-2.19,3.75-5.63,6.44-10.31,1.65-2.07,5.13-6.58,10.32-13.56,1.63-2.64,4.43-6.26,8.4-10.89.67-.57,1.58-1.33,2.7-2.26,4.8-5.73,7.9-9.34,9.38-10.8,3.74-3.69,7.85-6.7,11.48-7.56,3.28-.78,7.12-.06,8.77-.16.79-.05,2-.41,3.04-.27,1.12.14,2.45.72,3.99,1.75,1.53,1.01,2.92,1.6,4.14,1.75,4.73,10.89,7.96,20.11,9.51,27.7.9,2.32,1.57,5.43,2.01,9.35-.06,1.33.11,3.93.6,7.71.41,3.13.34,5.77.03,7.64-.41,2.57.44,5.7.9,8.07.7,3.59-.66,10.19-1.21,16.65-.09,1.02-.14,2.69-.36,4.78ZM113.11,97.03c-.37-4.6-1.14-8.65-2.33-12.14-2.09,2.27-5.65,6.57-10.75,12.85,2.91-.14,7.28-.37,13.08-.71Z"/>
    <path class="cls-1" d="M244.46,135.38c-.38,11.76-1.8,22.37-4.4,31.6-3.99,14.15-10.09,21.16-17.89,20.82-6.46-.28-13.41-3.76-20.48-10.48-5.87-5.57-10.68-12.09-14.45-19.31-.16,2.19-.28,5.56-.36,10.07-.08,4.52-.19,7.93-.36,10.24-.41,5.6-2.51,10.88-6.35,15.77-4.18,5.32-8.89,7.78-14.05,7.35-4.31-.36-7.49-2.19-9.51-5.47-2.01-3.28-2.8-7.23-2.36-11.83.25-2.63.92-6.47,1.97-11.51,1.06-5.04,1.7-8.89,1.95-11.51.55-5.69,1.44-14.3,2.69-25.79,1.25-11.5,2.14-20.1,2.69-25.8.77-7.99,4.64-15.21,11.45-21.7,4.15-1.75,6.99-2.59,8.52-2.47,1.73.13,4.31,1.22,7.75,3.23,3.16,4.42,6.9,12.46,11.36,24.09,4.89,12.76,8.96,21.58,12.01,26.48,1.75-24.61,2.7-38.23,2.85-40.87.05-.99-.4-2.89-1.35-5.7-.95-2.8-1.38-5.09-1.28-6.84.46-7.8,2.28-14.66,5.48-20.4,3.81-6.84,8.91-10.15,15.1-9.92,8.46.32,12.39,9.16,11.81,26.65-.11,3.53-.55,8.83-1.33,15.91-.77,7.09-1.22,12.39-1.34,15.91-.08,2.43-.1,6.01-.06,10.74.04,4.74.03,8.32-.05,10.73Z"/>
    <path class="cls-1" d="M357.04,150.09c.85,16.27-3.59,29.45-13.23,39.36-9.18,9.43-21.72,14.61-37.38,14.88-13.03.23-24.38-4.13-33.77-12.87-9.89-9.21-14.58-20.71-14.28-34.37.09-4.18.62-9.13,1.53-14.84,1.41-8.87,6.45-19.45,14.93-31.38,8.24-11.6,17.51-21.67,27.48-30.03,10.86-9.1,20.19-13.84,28.14-14.15,2.07-.07,6.2-.18,8.86,1.11,1.22.6,3.3,3.05,5.8,5.68,4.46,6.06,6.97,13.8,7.44,23.26.33,6.6-.2,12.16-1.53,16.62-1.54,5.14-4.36,8.51-7.31,8.63-4.85.21-10.41-4.28-14.46-11.29.39-2.99.57-5.09.53-6.31-.06-1.98-.85-3.77-2.36-5.36-7.46.92-19.37,12.11-36.96,33.14-4.77,5.76-7.22,13.07-7.25,21.99-.01,3.3,3.52,6.85,10.54,10.19,6.23,2.96,11.39,4.32,15.07,4.25,3.27-.07,6.76-.79,10.39-2.06,4.82-1.7,7.25-3.85,7.17-6.5-1.98-1.69-4.44-2.5-7.38-2.42-2.23.06-5.18.77-8.88,2.12-3.69,1.35-6.01,2.01-6.92,2.02-4.48.07-8.24-2.12-10.88-6.48-2.27-3.75-3.36-8.35-3.37-13.53,0-3.63,2.86-7.82,8.49-12.63,5.23-4.46,9.62-7.01,13.14-7.48,2.14-.29,5.37-.67,9.61-1.24,12.14,3.4,20.6,6.52,25.32,9.61,7.18,4.61,11.05,11.28,11.51,20.07Z"/>
    <path class="cls-1" d="M475.23,158.93c.67,4.8.39,9.07-.87,12.8-2.05,5.62-3.23,9.35-3.52,11.17-4.33,3.82-7.45,5.83-9.32,6.08-2.49.33-5.17-.56-8-2.65-2.83-2.08-4.8-4.34-5.93-6.76-6.63-5.63-17.92-12.77-33.51-21.75.28,1.97,1.01,5.83,2.18,11.57.99,4.88,1.62,8.75,1.89,11.6.48,5.04-.14,9.79-1.95,14.13-2.11,5.05-5.36,8.2-9.59,9.36-1.26.22-3.54.65-6.88,1.26-4.56-1.5-7.7-5.17-9.4-11.01.43-1.36.61-2.42.55-3.19-.02-.33-.03-.49-.06-.82-2.43-12.62-3.92-23.16-4.54-31.62-.3-4.07-.62-10.15-.96-18.23-.34-8.09-.67-14.17-.97-18.23-.44-6.04-1.06-11.68-1.83-16.92-1.4,1-2.86,2.01-4.35,3.06-1.5,1.05-3.04,1.64-4.6,1.74-2.74.19-7.18-1.35-8.94-4.03-2-3.05-2.4-8.57-2.58-11.76-.21-3.73.07-6.46.84-8.16.35-.79,1.39-2.29,3.13-4.5,1.74-2.21,2.93-3.51,3.57-3.88,6.08-3.95,13.96-8.2,23.57-12.8,11.06-5.3,19.01-8.29,23.98-8.83,11.54-1.26,19.61-1.34,24.24-.04,7.8,2.22,13.71,8.23,17.76,18.11.48,6.49.35,10.96-.4,13.4-.13.46-2.04,4.46-5.82,11.95-1.88,1.47-5.12,5.8-9.87,12.76-5.45,7.99-9.2,12.91-10.91,14.77,20.11,12.11,34.69,22.39,43.1,31.42ZM429.32,91.1c-2.85-1.11-8.13-1.22-15.84-.44-2.02.21-4.38.61-7.04,1.2.2,3.3.37,5.66.5,7.09.19,2.04.28,3.06.46,5.1.23,2.42.59,5.31,1.1,8.69,10.42-8.21,17.3-15.47,20.82-21.64Z"/>
    <path class="cls-1" d="M529.48,115.7c.52,2.81,1.15,7.49,1.97,13.91.76,5.98,1.51,10.64,2.11,13.89,1.45,7.8,3.46,14.42,6.07,19.86.47,7.54.43,12.76-.1,15.65-1.27,5.84-4.62,9.27-10.02,10.24-7.49,1.35-13.28-3.37-17.28-14.08-1.7-4.52-3.58-13.02-5.63-25.51-.46-2.83-1.07-7.37-1.78-13.61-.66-5.79-1.24-10.34-1.77-13.6-.25-1.5-.37-2.25-.62-3.75-11.78-9.06-21.56-18.02-29.46-26.75-1.6-4.89-2.55-8.42-2.86-10.6-.66-4.68.52-9.2,3.52-13.55s6.53-6.86,10.68-7.53c2.91-.48,5.96,1.08,9.17,4.67.11.1,2.35,3.18,6.79,9.22,1.37,1.78,5.66,5.46,12.97,10.95,10.67-18.16,20.79-34.38,30.58-48.64,1.62-1.02,3.22-1.71,4.78-2.05,2.49-.54,8.54-.97,10.74.65,2.2,1.63,3.78,7.84,4.52,11.17.63,2.79.54,6.82-.28,12.08-.28,1.87-3.35,7.16-9.43,15.62-6.72,9.34-10.88,15.18-12.02,17.53-3.62,7.6-7.82,15.67-12.65,24.21Z"/>
  </g>
</svg>