<?xml version="1.0" encoding="UTF-8"?>
<svg id="Layer_1" data-name="Layer 1" xmlns="http://www.w3.org/2000/svg" viewBox="0 0 833.15 796.55">
  <defs>
    <style>
      .cls-1 {
        fill: #fff;
      }

      .cls-2 {
        fill: #4c6b66;
      }

      .cls-3 {
        fill: #192624;
      }

      .cls-4 {
        fill: #d0e9d7;
        stroke: #78a499;
        stroke-miterlimit: 2.61;
        stroke-width: 1.05px;
      }
    </style>
  </defs>
  <path class="cls-1" d="M683.12,411.45c-.99,54.18-45.72,97.29-99.89,96.29-54.18-.99-97.29-45.72-96.3-99.89.99-54.18,45.72-97.29,99.89-96.29,54.17.99,97.29,45.72,96.29,99.89Z"/>
  <path class="cls-1" d="M373.52,405.77c-.99,54.18-45.72,97.29-99.89,96.29-54.18-.99-97.29-45.72-96.3-99.89.99-54.18,45.72-97.29,99.89-96.29,54.17.99,97.29,45.72,96.29,99.89Z"/>
  <path class="cls-4" d="M786.06,559.5c-12.02-33.58-38.25-49.46-68.34-62.6-5.08-2.18-15.91-.45-9.37-15.73,39.39-92.21,49.51-183.02-5.07-275.8-30.48-51.88-71.3-88.86-120.55-119.26-58.23-35.94-114.46-47.42-178.13-45.92-75.68,1.8-154.53,42.43-210.66,96.79-94.34,91.3-112.3,204.94-62.53,320.51,8.16,19,5.36,24.01-12.08,29.38-34.08,10.5-55.48,36.21-70.76,66.36-26.22,51.73,30.21,97.92,70.03,104.19,34.88,5.55,65.26-8.72,96.6-20.57,6.35,80.52,24.25,107,74.19,113.97,30.72,4.32,57-5.27,80.26-23.69,22.73-18.01,34.58-43.64,43-72.77,37.02,73.93,84.47,114.11,127.09,98.97,47.19-16.73,87.35-45.96,71.08-115.22,34.59,24.08,65.26,31.43,98.94,30.74,58.13-1.23,95.87-54.83,76.3-109.33ZM261.61,495.43c-47.6-.87-85.51-40.2-84.64-87.85.87-47.6,40.2-85.51,87.8-84.64,17.66.32,25.83,17.7,39.33,27.05,22.93,15.88,45.9,30.8,45.35,60.75-.87,47.65-40.2,85.56-87.85,84.69ZM583.78,501.34c-47.6-.87-85.51-40.2-84.64-87.85.55-30.07,23.83-42.67,47.47-57.67,13.78-8.74,22.81-27.29,40.33-26.97,47.65.87,85.56,40.2,84.69,87.8-.87,47.65-40.2,85.56-87.85,84.69Z"/>
  <path class="cls-2" d="M418.7,448.54c37.6-1.37,71.74,26.49,80.84,53.42,2.23,6.6,2.86,12.82-3.52,17.27-6.02,4.2-11.44,2.77-17.46-1.6-6.13-4.44-9.57-10.84-14.61-16-26.69-27.29-63.33-24.34-84.59,7.08-2.24,3.31-4.47,7.04-7.81,9.21-6.45,4.19-11.57,3.15-16.87-1.93-5.72-5.49-4.94-12.23-2.47-17.97,5.66-13.15,15.84-22.28,26.76-31.78,14.21-12.37,29.67-16.53,39.74-17.71Z"/>
  <path class="cls-3" d="M238.47,409.2c-.58,31.51,24.5,57.52,56,58.1,31.51.58,57.52-24.5,58.1-56,.58-31.51-24.5-57.52-56.01-58.1-31.51-.58-57.52,24.5-58.1,56Z"/>
  <path class="cls-2" d="M345.79,410.39c-3.46,0-6.95-.98-10.05-3.03l-129.17-85.32c-8.42-5.56-10.74-16.9-5.18-25.31,5.56-8.42,16.9-10.73,25.31-5.18l129.17,85.33c8.42,5.56,10.74,16.89,5.18,25.31-3.51,5.32-9.33,8.2-15.26,8.2Z"/>
  <path class="cls-3" d="M612.91,417.97c-.58,31.51-26.59,56.58-58.1,56-31.51-.58-56.58-26.59-56.01-58.1.58-31.51,26.59-56.58,58.1-56,31.51.58,56.58,26.59,56,58.1Z"/>
  <path class="cls-2" d="M503.48,413.28c-6.16,0-12.18-3.12-15.62-8.77-5.25-8.62-2.52-19.86,6.1-25.11l132.21-80.53c8.61-5.25,19.86-2.52,25.11,6.1,5.25,8.62,2.52,19.86-6.1,25.11l-132.21,80.53c-2.97,1.81-6.25,2.67-9.49,2.67Z"/>
</svg>