<?xml version="1.0" encoding="UTF-8"?>
<svg id="Layer_1" data-name="Layer 1" xmlns="http://www.w3.org/2000/svg" viewBox="0 0 1241.68 526.81">
  <defs>
    <style>
      .cls-1 {
        fill: #fff;
      }

      .cls-2 {
        fill: #74ae9f;
      }

      .cls-3 {
        fill: #5c9484;
      }
    </style>
  </defs>
  <g>
    <g>
      <path class="cls-3" d="M359.35,214.67c0,31.06-7.24,64.65-21.71,100.75-15.42,39.06-35.55,70.72-60.39,94.97-28.94,28.12-60.55,42.16-94.83,42.16-17.92,0-31.92-2.21-41.98-6.66-23.91-10.05-42.15-32.1-54.73-66.13-9.75-26.33-14.63-54.73-14.63-85.21,0-44.97,18.72-94.98,56.14-150.01,15.41-22.19,25-35.51,28.78-39.94,12.58-14.5,26.18-23.53,40.81-27.07,14.63-3.55,27.91-5.33,39.87-5.33,38.69,0,69.36,15.09,92,45.27,20.44,27.23,30.67,59.62,30.67,97.19ZM249.89,239.08c0-21.59-8.49-41.72-25.48-60.36-4.72-1.18-7.24-1.78-7.55-1.78-10.07,0-17.93,6.66-23.59,19.97-2.83,4.44-6.45,11.24-10.85,20.42-6.3,15.09-9.43,33.59-9.43,55.48,0,44.68,13.21,69.09,39.63,73.23,12.89-6.8,22.8-22.92,29.72-48.38,5.02-19.53,7.55-39.06,7.55-58.58Z"/>
      <path class="cls-3" d="M182.42,461.81c-19.42,0-34.38-2.44-45.72-7.45-26.09-10.97-46.22-35.01-59.67-71.38-10.08-27.23-15.2-56.98-15.2-88.42,0-46.65,19.43-98.87,57.74-155.21,15.79-22.74,25.38-36.03,29.38-40.73,13.87-15.99,29.21-26.08,45.67-30.07,15.28-3.71,29.43-5.59,42.05-5.59,41.58,0,75.02,16.48,99.4,48.97,21.58,28.74,32.52,63.31,32.52,102.75,0,32.09-7.53,67.15-22.37,104.19-15.81,40.06-36.85,73.1-62.51,98.15-30.61,29.73-64.68,44.79-101.3,44.79ZM236.67,81.46c-11.15,0-23.83,1.71-37.69,5.07-12.65,3.07-24.76,11.19-36,24.15-2.39,2.81-9.27,11.94-28.17,39.16-36.14,53.14-54.49,101.86-54.49,144.73,0,29.24,4.73,56.82,14.05,82,11.6,31.38,28.3,51.84,49.64,60.81,8.96,3.96,21.83,5.93,38.4,5.93,31.64,0,61.37-13.31,88.39-39.55,23.77-23.2,43.36-54.07,58.23-91.73,13.98-34.89,21.06-67.63,21.06-97.35,0-35.34-9.7-66.17-28.82-91.64-20.99-27.98-48.66-41.58-84.6-41.58ZM214.21,355.65l-3.03-.47c-31.49-4.93-47.45-32.64-47.45-82.37,0-23.04,3.42-42.91,10.15-59.04,4.5-9.41,8.2-16.4,11.18-21.17,8.99-20.56,22.23-24.9,31.8-24.9,1.34,0,1.84.06,9.8,2.06l2.71.68,1.88,2.06c18.51,20.31,27.89,42.71,27.89,66.59,0,20.2-2.64,40.68-7.84,60.89-7.73,28.43-18.96,46.14-34.37,54.26l-2.72,1.43ZM216.08,186.21c-2.77.13-8.8,1.41-14.29,14.33l-.71,1.35c-2.65,4.16-6.12,10.7-10.32,19.45-5.59,13.42-8.52,30.89-8.52,51.48,0,52.46,18.86,61.31,28.6,63.5,9.3-6.4,16.88-20.19,22.57-41.08,4.78-18.58,7.22-37.51,7.22-56.15s-6.95-35.67-21.23-52.07c-1.51-.38-2.62-.64-3.33-.8Z"/>
    </g>
    <g>
      <path class="cls-3" d="M622.6,168.96c-.32,1.18-7.72,13.61-22.18,37.28-3.14,5.33-8.66,9.77-16.51,13.32-12.9,5.92-19.66,9.02-20.28,9.32-21.08-4.14-34.29-14.2-39.63-30.18-.95-7.99-1.89-15.97-2.83-23.96-4.09-4.14-11.64-6.95-22.64-8.44-4.09,1.18-9.91,3.85-17.46,7.99-4.09,3.55-8.65,9.18-13.68,16.87-14.47,42.02-22.33,71.6-23.59,88.76-.63,6.52.47,19.68,3.31,39.5l6.13,22.19c7.55,13.32,17.76,19.97,30.66,19.97,7.55,0,16.99-2.36,28.3-7.1,9.44-4.14,18.87-8.28,28.31-12.43,12.27-5.32,27.36-16.86,45.29-34.62,27.05-26.92,41.04-40.68,41.99-41.28,12.27.6,22.02,3.55,29.25,8.88,8.8,6.21,14.94,17.02,18.4,32.4l-19.35,28.84c-20.13,28.7-44.66,53.56-73.59,74.57-32.09,23.08-64.64,37.72-97.66,43.93-5.67,1.18-11.17,1.78-16.51,1.78-33.97,0-62.75-13.92-86.34-41.72-15.1-26.34-26.57-58.88-34.45-97.64,1.27-8.57,2.68-19.22,4.25-31.95,2.2-7.68,8.81-32.24,19.82-73.67,19.18-44.38,43.24-79.45,72.18-105.19,2.83-1.48,4.72-2.81,5.67-3.99,4.4-4.43,12.42-9.17,24.06-14.2,6.29-2.37,20.92-9.73,44.82-9.32,6.08.1,13.67-1.09,23.11,0,11,1.27,16.82,5.77,19.35,5.77,10.69,3.26,21.7,5.61,32.09,9.77,9.15,3.67,17.3,14.94,25.48,31.51,1.89,5.04,3.3,19.39,4.25,43.05Z"/>
      <path class="cls-3" d="M468.32,465.81c-36.64,0-68.07-15.14-93.4-44.99l-.97-1.39c-15.51-27.06-27.45-60.84-35.48-100.4l-.32-1.59.23-1.6c1.26-8.52,2.66-19.09,4.22-31.74l.29-1.42c2.17-7.57,8.82-32.29,19.77-73.49l.45-1.3c19.64-45.44,44.72-81.92,74.53-108.43l1.87-1.29c2.24-1.17,2.9-1.78,2.93-1.81,5.75-5.84,14.57-11.13,27.41-16.68l2.83-1.13c7.44-3.03,23.06-9.14,45.82-8.94,1.89.06,3.9-.08,6.09-.19,4.87-.25,10.93-.56,17.93.25,8.42.97,14.35,3.55,17.9,5.09.53.23,1,.44,1.41.61l1.68.4c3.49,1.06,7.01,2.02,10.54,2.99,7.32,2,14.89,4.07,22.29,7.04,10.82,4.33,20.17,15.43,30.33,35.99l.37.85c1.56,4.17,3.52,13.15,4.83,45.93l.06,1.41-.36,1.36c-.49,1.83-.81,3.05-23.22,39.72-4.03,6.84-10.98,12.57-20.59,16.93-12.82,5.88-19.55,8.97-20.18,9.27l-2.74,1.28-2.96-.58c-24.49-4.82-40.18-17.04-46.62-36.33l-.42-1.84-2.38-20.12c-2.2-1.25-6.14-2.8-13.1-3.9-2.54.92-6.58,2.7-12.9,6.12-3.1,2.88-6.69,7.37-10.69,13.38-13.9,40.5-21.55,69.2-22.73,85.32-.4,4.13-.15,13.69,3.15,36.93l5.66,20.47c7.63,12.82,16.21,14.33,22.06,14.33,6.3,0,14.62-2.15,24.73-6.38l28.17-12.37c11.19-4.86,25.48-15.86,42.5-32.72,41.31-41.12,42.22-41.69,43.61-42.56l2.45-1.53,2.89.14c14.06.68,25.59,4.27,34.29,10.66,10.55,7.45,17.98,20.21,21.94,37.83l.87,3.89-21.56,32.15c-20.73,29.57-46.22,55.39-75.84,76.9-33.06,23.78-67.16,39.1-101.38,45.54-6.15,1.27-12.34,1.94-18.23,1.94ZM389.58,409.49c21.84,25.45,47.6,37.81,78.74,37.81,4.63,0,9.55-.53,14.64-1.59,31.7-5.97,63.31-20.22,94.13-42.39,27.93-20.28,51.97-44.63,71.42-72.36l16.96-25.28c-3-10.99-7.62-18.75-13.77-23.09-5.12-3.77-12-6.07-20.59-6.92-4.08,3.93-14.24,13.88-38.78,38.32-18.94,18.76-34.68,30.71-48.13,36.55l-28.28,12.42c-12.7,5.32-23.12,7.88-32.02,7.88-11.29,0-27.17-4.28-38.72-24.67l-.87-2.1-6.37-23.34c-3.01-21.03-4.08-34.28-3.36-41.7,1.31-17.9,9.18-47.69,24.06-90.88l1-2.06c5.57-8.5,10.59-14.64,15.36-18.79l1.62-1.13c8.24-4.51,14.56-7.38,19.33-8.76l1.88-.54,1.93.26c13.22,1.78,22.37,5.42,27.99,11.11l2.23,2.26,3.09,26.12c4.18,11.51,13.84,18.92,29.49,22.58,3.19-1.47,9.02-4.15,17.5-8.04,6.11-2.76,10.27-5.99,12.39-9.6,13.92-22.78,19.02-31.42,20.81-34.62-1.15-27.11-2.71-35.1-3.45-37.42-7.57-15.2-14.42-24.12-20.37-26.51-6.42-2.58-13.16-4.42-20.3-6.37-3.4-.94-6.81-1.87-10.18-2.88-2.04-.32-3.88-1.11-5.93-2.01-2.94-1.27-6.96-3.02-12.65-3.68-5.46-.63-10.23-.38-14.85-.15-2.65.14-5.1.25-7.36.22-19.23-.53-31.74,4.81-38.52,7.58l-2.88,1.15c-12.27,5.31-17.96,9.34-20.53,11.83-1.63,1.86-3.92,3.58-7.12,5.34-27.29,24.52-50.42,58.36-68.76,100.6-10.71,40.3-17.09,64.04-19.49,72.47-1.45,11.72-2.76,21.66-3.95,29.84,7.56,36.57,18.54,67.7,32.66,92.57Z"/>
    </g>
    <g>
      <path class="cls-3" d="M854.24,208.18c0,130.33-5.82,206.46-17.46,228.37-5.03,9.47-16.68,17.48-34.91,24-14.79-4.74-23.59-8-26.42-9.78-5.98-3.56-12.11-10.37-18.4-20.45.94-9.49,2.52-38.97,4.71-88.46,2.83-66.97,4.25-104.47,4.25-112.47,0-9.18-.63-21.93-1.89-38.23-43.4,7.99-73.59,11.98-90.58,11.98s-30.35-12.27-38.22-36.84c2.37-20.54,9.69-36.84,21.96-48.89,4.31-4.23,10.05-6.6,16.09-6.79,44.68-1.38,93.95-7.08,147.84-17.1,10.06-2.66,25.32-6.21,45.76-10.65,9.43-1.48,22.96-4.88,40.57-10.21,17.61-7.69,29.56-11.54,35.86-11.54,10.38,0,19.26,4,26.65,12,7.39,8,11.09,17.03,11.09,27.1s-3.62,20.6-10.85,30.66c-8.8,12.44-13.52,19.7-14.15,21.77-12.58,7.1-28.47,13.33-47.65,18.66-20.76,5.92-39.63,9.19-56.62,9.77,0,1.78.47,6.22,1.42,13.33.62,5.63.94,10.22.94,13.78Z"/>
      <path class="cls-3" d="M802.04,470.31l-2.99-.96c-20.54-6.59-25.95-9.14-28.52-10.77-7.13-4.24-14.17-11.93-21.31-23.37l-1.67-2.67.31-3.14c.93-9.4,2.5-39,4.68-87.97,2.81-66.47,4.24-104.18,4.24-112.06,0-6.89-.38-16.04-1.13-27.29-38.85,6.92-65.76,10.29-82.09,10.29-15.14,0-35.59-7.5-47.03-43.27l-.61-1.9.23-1.98c2.61-22.61,10.91-40.92,24.67-54.43,5.93-5.83,13.85-9.18,22.29-9.44,43.98-1.36,93.25-7.06,146.44-16.95,9.5-2.55,25.03-6.16,45.49-10.6,9.38-1.48,22.44-4.77,39.33-9.87,24.9-10.83,34.21-12.09,39.06-12.09,13.01,0,24.27,5.04,33.45,14.97,8.99,9.73,13.55,20.96,13.55,33.38s-4.24,24.44-12.59,36.06c-10.74,15.17-12.64,18.77-12.97,19.51l-1.08,3.56-3.07,1.36c-13.18,7.44-29.91,14.01-49.72,19.52-17.48,4.98-33.9,8.17-48.96,9.5.13,1.03.28,2.18.45,3.47.7,6.3,1.02,11.14,1.02,15,0,133.1-6.07,209.22-18.54,232.71-6.21,11.69-19.28,20.96-39.96,28.37l-2.95,1.06ZM766.55,427.98c6.01,9.08,10.69,13.08,13.64,14.83.72.44,4.17,2.31,21.48,7.94,14.07-5.39,23.35-11.78,26.94-18.54,7.47-14.07,16.38-64.36,16.38-224.03,0-3.14-.3-7.43-.89-12.76-1.31-9.78-1.48-12.81-1.48-14.34v-8.94l8.93-.31c16.13-.56,34.43-3.73,54.4-9.42,17.16-4.78,31.65-10.3,43.15-16.46,1.84-3.28,5.57-9.02,13.63-20.43,6.17-8.58,9.15-16.85,9.15-25.32,0-7.72-2.82-14.53-8.63-20.82-5.61-6.07-12.11-9.02-19.86-9.02-2.25,0-9.91,1.05-32.16,10.76l-1.02.38c-18.21,5.51-31.89,8.94-41.82,10.5-19.66,4.28-34.92,7.83-44.82,10.46-54.79,10.22-105,16.02-149.93,17.4-3.78.12-7.29,1.59-9.89,4.14-10.42,10.23-16.65,23.78-19,41.36,9.73,28.51,24.02,28.51,28.78,28.51,16.34,0,46.25-3.98,88.9-11.83l10.11-1.86.79,10.25c1.27,16.5,1.92,29.6,1.92,38.94,0,8.25-1.39,45.17-4.26,112.87-1.98,44.72-3.48,73.5-4.46,85.73Z"/>
    </g>
    <g>
      <path class="cls-3" d="M1205.73,214.67c0,31.06-7.24,64.65-21.71,100.75-15.42,39.06-35.55,70.72-60.39,94.97-28.94,28.12-60.55,42.16-94.83,42.16-17.92,0-31.92-2.21-41.98-6.66-23.91-10.05-42.15-32.1-54.73-66.13-9.75-26.33-14.63-54.73-14.63-85.21,0-44.97,18.72-94.98,56.14-150.01,15.41-22.19,25-35.51,28.78-39.94,12.58-14.5,26.18-23.53,40.81-27.07,14.63-3.55,27.91-5.33,39.87-5.33,38.69,0,69.36,15.09,92,45.27,20.44,27.23,30.67,59.62,30.67,97.19ZM1096.27,239.08c0-21.59-8.49-41.72-25.48-60.36-4.72-1.18-7.24-1.78-7.55-1.78-10.07,0-17.93,6.66-23.59,19.97-2.83,4.44-6.45,11.24-10.85,20.42-6.3,15.09-9.43,33.59-9.43,55.48,0,44.68,13.21,69.09,39.63,73.23,12.89-6.8,22.8-22.92,29.72-48.38,5.02-19.53,7.55-39.06,7.55-58.58Z"/>
      <path class="cls-3" d="M1028.8,461.81c-19.42,0-34.37-2.44-45.72-7.45-26.09-10.97-46.22-35-59.68-71.38-10.08-27.24-15.2-56.98-15.2-88.42,0-46.65,19.43-98.87,57.74-155.21,15.81-22.77,25.41-36.06,29.39-40.74,13.86-15.98,29.21-26.07,45.67-30.06,15.28-3.71,29.43-5.59,42.05-5.59,41.58,0,75.02,16.48,99.4,48.97,21.58,28.74,32.52,63.31,32.52,102.75,0,32.09-7.53,67.15-22.37,104.19-15.81,40.06-36.85,73.1-62.51,98.15-30.61,29.73-64.68,44.79-101.3,44.79ZM1083.06,81.46c-11.15,0-23.83,1.71-37.69,5.07-12.65,3.07-24.76,11.19-36,24.15-3.48,4.08-12.98,17.28-28.17,39.16-36.14,53.14-54.49,101.86-54.49,144.73,0,29.24,4.73,56.82,14.05,82,11.61,31.38,28.31,51.84,49.64,60.81,8.96,3.96,21.83,5.93,38.39,5.93,31.64,0,61.38-13.31,88.39-39.55,23.77-23.2,43.36-54.07,58.23-91.73,13.98-34.89,21.06-67.63,21.06-97.35,0-35.34-9.7-66.17-28.82-91.64-20.99-27.98-48.66-41.58-84.6-41.58ZM1060.6,355.65l-3.03-.47c-31.49-4.93-47.45-32.64-47.45-82.37,0-23.04,3.41-42.91,10.14-59.04,4.5-9.42,8.21-16.4,11.18-21.17,9-20.57,22.23-24.91,31.81-24.91,1.34,0,1.84.06,9.8,2.06l2.71.68,1.88,2.06c18.51,20.31,27.89,42.71,27.89,66.59,0,20.2-2.64,40.68-7.84,60.89-7.73,28.43-18.96,46.14-34.37,54.26l-2.72,1.43ZM1062.46,186.21c-2.77.13-8.8,1.41-14.29,14.33l-.71,1.35c-2.65,4.17-6.12,10.71-10.32,19.46-5.58,13.42-8.52,30.89-8.52,51.47,0,52.46,18.86,61.31,28.6,63.5,9.3-6.4,16.88-20.19,22.57-41.08,4.78-18.58,7.22-37.51,7.22-56.15s-6.95-35.67-21.23-52.07c-1.51-.38-2.62-.64-3.33-.8Z"/>
    </g>
  </g>
  <g>
    <g>
      <path class="cls-1" d="M324.37,222.8c-.06,31.06-7.37,64.64-21.9,100.71-15.49,39.03-35.69,70.65-60.58,94.85-29,28.06-60.63,42.04-94.92,41.97-17.92-.03-31.92-2.28-41.97-6.74-23.89-10.1-42.08-32.18-54.6-66.24-9.69-26.35-14.51-54.76-14.45-85.24.09-44.97,18.9-94.94,56.44-149.9,15.46-22.16,25.08-35.46,28.86-39.88,12.61-14.47,26.23-23.48,40.86-26.99,14.63-3.53,27.92-5.28,39.88-5.26,38.69.08,69.32,15.23,91.91,45.45,20.38,27.27,30.55,59.69,30.48,97.26ZM214.86,246.99c.05-21.59-.66-45.32-22.28-58.3-4.17-2.5-10.3-3.91-10.61-3.91-10.07-.02-17.95,6.63-23.63,19.93-2.83,4.43-6.48,11.23-10.89,20.39-6.33,15.07-9.5,33.57-9.55,55.46-.09,44.68,13.11,77.64,39.49,73.3,14.38-2.37,22.84-22.87,29.81-48.31,5.06-19.52,7.63-39.05,7.66-58.58Z"/>
      <path class="cls-2" d="M147.22,469.59h-.26c-19.41-.04-34.36-2.5-45.71-7.53-26.07-11.02-46.15-35.1-59.53-71.5-10.03-27.26-15.08-57.02-15.02-88.45.09-46.66,19.62-98.84,58.05-155.1,15.79-22.65,25.41-35.93,29.46-40.67,13.92-15.97,29.29-26.03,45.75-29.98,15.26-3.68,29.28-5.37,42.05-5.52,41.58.09,74.99,16.63,99.3,49.17,21.52,28.79,32.4,63.39,32.32,102.82-.05,32.07-7.65,67.12-22.57,104.15-15.89,40.03-37,73.02-62.71,98.02-30.58,29.59-64.6,44.59-101.13,44.59ZM201.76,89.34c-11.11,0-23.72,1.68-37.48,5-12.66,3.04-24.78,11.13-36.06,24.07-2.41,2.83-9.33,11.98-28.24,39.1-36.24,53.07-54.69,101.75-54.77,144.62-.05,29.23,4.62,56.83,13.88,82.03,11.55,31.4,28.21,51.89,49.52,60.91,8.97,3.98,21.83,5.98,38.39,6h.22c31.56,0,61.25-13.24,88.25-39.37,23.82-23.16,43.47-53.98,58.41-91.61,14.05-34.88,21.2-67.6,21.24-97.31h0c.07-35.33-9.56-66.19-28.63-91.7-20.94-28.01-48.58-41.66-84.52-41.74h-.21ZM172.85,363.51c-7.99,0-15.37-2.72-21.62-8.03-14.64-12.45-22.66-39.06-22.59-74.92.05-23.05,3.5-42.91,10.26-59.03,4.52-9.39,8.24-16.37,11.23-21.15,9.01-20.5,22.22-24.85,31.79-24.85,2.09.08,10.4,2.21,15.41,5.22,26.89,16.13,26.82,46.29,26.78,66.25-.03,20.18-2.71,40.67-7.96,60.88-7.32,26.7-16.88,51.76-37.27,55.12-2.05.33-4.06.5-6.04.5ZM181.08,194.06c-2.82.14-8.78,1.53-14.24,14.29l-.71,1.35c-2.67,4.17-6.15,10.71-10.36,19.43-5.62,13.41-8.58,30.87-8.63,51.46-.06,29.45,5.95,52.17,16.08,60.78,3.66,3.11,7.69,4.19,12.66,3.37,11.5-1.89,19.7-31.8,22.4-41.63,4.82-18.58,7.3-37.51,7.33-56.14h0c.05-22.45-1.22-40.41-17.79-50.35-1.9-1.14-5.09-2.15-6.74-2.57Z"/>
    </g>
    <g>
      <path class="cls-1" d="M587.16,165.32c-2,8.02-3.86,15.49-5.86,23.5-3.69,6.16-8.97,14.83-15.84,26.02-3.15,5.33-8.67,9.75-16.54,13.29l-4.07,1.86c-15.18,6.93-33.67,5.13-45.65-6.49-4.64-4.5-8.03-9.95-10.15-16.35h0c-.93-7.99-1.85-15.98-2.78-23.96v-.03c-4.1-4.14-11.63-6.96-22.62-8.46h-.02c-4.09,1.18-9.91,3.82-17.46,7.94h-.01c-4.1,3.55-8.66,9.17-13.7,16.84h0c-14.55,42-22.47,71.57-23.76,88.72-.65,6.52.43,19.68,3.23,39.5h0s6.09,22.2,6.09,22.2h0c7.51,13.34,17.72,20.01,30.62,20.04,7.55.02,20.7-3.68,32.03-8.4,9.45-4.12,15.18-6.89,24.62-11.01,12.27-5.3,27.4-16.81,45.36-34.53,27.03-26.81,32.75-34.31,33.76-34.96.01,0,8.32-6.23,8.34-6.23,12.26-.56,21.99,3.6,29.22,8.93,8.78,6.23,14.9,17.04,18.33,32.42v.04s-19.4,28.79-19.4,28.79c-20.19,28.66-44.77,53.47-73.74,74.42-32.13,23.01-64.71,37.59-97.75,43.74-5.67,1.17-11.17,1.76-16.51,1.75-33.97-.07-62.72-14.04-86.26-41.89h0c-12.96-22.7-23.21-50-30.79-81.9-.52-9.87-1.02-19.47-1.54-29.34.75-5.56,1.55-11.7,2.39-18.42h0c2.22-7.69,8.88-32.23,19.96-73.63h0c19.27-44.35,43.39-79.37,72.39-105.05,2.83-1.47,4.72-2.8,5.68-3.98,4.41-4.43,12.44-9.15,24.08-14.15,5.7-2.14,18.5-4.86,38.39-8.18,2.79-.47,7.44-.79,10.25-.48,3.14.34,6.66.42,10.56.24,5.75-.27,23.44,4.23,25.45,4.67,10.74,3.06,21.4,6.1,32.14,9.16l2.57,1.03c8.78,4.46,17.26,14.98,25.41,31.56h0c1.53,4.11,2.72,14.36,3.6,30.77Z"/>
      <path class="cls-2" d="M433.05,474.15h-.2c-36.64-.07-68.04-15.27-93.3-45.17l-.97-1.39c-13.33-23.35-24.01-51.72-31.76-84.35l-.23-1.65-1.59-30.21.12-.86c.75-5.53,1.54-11.64,2.38-18.33l.29-1.42c2.18-7.54,8.88-32.25,19.92-73.45l.45-1.29c19.74-45.41,44.88-81.85,74.75-108.29l1.88-1.29c2.24-1.17,2.91-1.78,2.94-1.81,5.73-5.8,14.56-11.08,27.42-16.6,6.79-2.55,19.54-5.3,40.52-8.8,3.51-.58,9.03-.95,12.78-.55,2.65.29,5.73.37,9.12.19,4.42-.16,12.05,1.09,26.32,4.51l1.53.36,36.2,10.64c11.47,5.79,21.12,17.47,30.27,36.06l.37.86c1.3,3.47,2.94,10.42,4.17,33.51l.07,1.38-7.23,27.37c-3.7,6.18-9,14.88-15.9,26.1-4.04,6.84-11.01,12.56-20.63,16.88l-4.02,1.84c-19.29,8.8-41.78,5.49-55.94-8.26-5.71-5.54-9.91-12.29-12.49-20.08l-.41-1.83-2.34-20.13c-2.19-1.25-6.14-2.81-13.09-3.92-2.55.92-6.6,2.69-12.91,6.09-3.11,2.87-6.7,7.35-10.7,13.35-13.99,40.47-21.69,69.16-22.9,85.28-.41,4.14-.18,13.69,3.08,36.94l5.62,20.48c7.6,12.85,16.19,14.37,22.04,14.38h.04c5.77,0,17.7-3.23,28.42-7.69,4.53-1.98,8.28-3.68,12.04-5.39,3.83-1.74,7.67-3.48,12.43-5.56,11.2-4.83,25.51-15.81,42.57-32.64,19.28-19.13,27.55-28.26,31.09-32.16,1.88-2.08,2.68-2.97,3.79-3.75l3.37-2.52c6.99-5.23,7.26-5.44,10.35-5.44,12.24-.48,24.43,3.14,34.71,10.74,10.53,7.46,17.93,20.23,21.86,37.84l.87,3.89-21.62,32.13c-20.8,29.54-46.33,55.3-76,76.75-33.12,23.72-67.25,38.97-101.47,45.33-6.09,1.26-12.21,1.91-18.03,1.91ZM354.23,417.68c21.79,25.49,47.53,37.91,78.67,37.97,4.36-.22,9.54-.52,14.63-1.56,31.71-5.91,63.35-20.09,94.22-42.2,27.96-20.22,52.05-44.53,71.56-72.22l17-25.25c-2.97-11-7.58-18.76-13.72-23.12-6.32-4.67-13.25-7.08-20.73-7.27l-2.38,1.78c-1.25.94-2.24,1.68-3.07,2.27-.31.33-.78.85-1.46,1.6-3.63,4.01-12.13,13.41-31.79,32.9-18.98,18.72-34.74,30.64-48.21,36.45-4.64,2.03-8.4,3.73-12.15,5.44-3.83,1.74-7.67,3.48-12.43,5.56-10.74,4.47-25.63,9.17-35.68,9.17h-.08c-11.28-.02-27.16-4.33-38.66-24.73l-.86-2.1-6.33-23.36c-2.97-21.04-4.01-34.3-3.27-41.72,1.34-17.9,9.27-47.67,24.23-90.82l1.01-2.05c5.58-8.5,10.61-14.64,15.39-18.77l1.62-1.13c8.22-4.48,14.54-7.33,19.33-8.72l3.19-.36.65.09c13.19,1.8,22.33,5.44,27.94,11.13l2.51,4.51,2.78,23.9c1.66,4.63,4.13,8.49,7.52,11.78,8.74,8.48,22.95,10.37,35.36,4.71l4.07-1.86c6.13-2.75,10.28-5.96,12.42-9.58,6.49-10.58,11.53-18.84,15.16-24.89l5.18-20.81c-1.05-18.8-2.32-24.64-2.84-26.31-8.87-17.88-16.33-24.49-21.04-26.89l-1.27-.48-33.12-9.37c-15.84-3.79-20.05-4.08-21.15-4.02-4.36.19-8.38.1-11.99-.28-1.67-.19-5.4.01-7.73.41-23.96,4-33.16,6.4-36.66,7.72-12.67,5.46-18.33,9.56-20.77,12.01-1.1,1.41-3.45,3.21-6.9,5.09-27.34,24.47-50.53,58.26-68.96,100.47-10.8,40.32-17.23,64.05-19.64,72.43-.77,6.14-1.5,11.78-2.2,16.94l1.45,27.63c7.24,30.22,17.06,56.41,29.21,77.89Z"/>
    </g>
    <g>
      <path class="cls-1" d="M819.28,217.29c-.26,130.33-6.23,206.44-17.91,228.34-1.9,3.55-4.72,6.89-8.47,10.02-13.4,11.18-32.46,12.85-48.57,6.15-2.01-.83-3.44-1.53-4.31-2.07-.99-.6-1.99-1.28-3-2.06-10.19-7.89-15.04-20.82-14.23-33.68.95-15.15,2.2-39.55,3.76-73.21,2.96-66.96,4.45-104.46,4.47-112.47.02-9.18-.59-21.93-1.81-38.23-43.42,7.9-73.62,11.83-90.6,11.8-10.28-.02-18.88-4.21-25.82-12.58-11.34-13.68-12.81-33.02-6.07-49.45,4.51-10.99,11.15-20.13,19.93-27.44,2.31-1.92,5.23-2.87,8.23-2.94,45.66-1.08,96.2-6.72,151.62-16.91,10.06-2.65,25.32-6.17,45.78-10.56,9.44-1.46,22.97-4.84,40.59-10.13,17.63-7.66,29.59-11.48,35.88-11.47,10.38.02,19.26,4.04,26.63,12.05,7.37,8.02,11.06,17.05,11.03,27.12-.02,10.38-3.66,20.59-10.91,30.64-2.98,4.2-5.5,7.81-7.55,10.82-5.76,8.49-13.83,15-23.29,18.96-9.16,3.83-19.5,7.34-31.04,10.52-20.77,5.88-39.65,9.11-56.63,9.66,0,1.78.46,6.22,1.39,13.34.61,5.63.92,10.22.91,13.78Z"/>
      <path class="cls-2" d="M763.85,474.95c-7.74,0-15.62-1.51-23.07-4.61-2.65-1.11-4.53-2.06-5.68-2.78-1.14-.68-2.44-1.57-3.75-2.58-12.18-9.43-18.84-24.96-17.81-41.56.95-15.13,2.2-39.48,3.75-73.06,2.95-66.43,4.45-104.14,4.46-112.05.01-6.9-.34-16.05-1.07-27.29-38.88,6.84-65.49,10.47-82.11,10.13-13.1-.02-24.18-5.38-32.93-15.92-13.06-15.76-15.94-38.32-7.51-58.88,5.06-12.35,12.66-22.79,22.57-31.04,3.78-3.15,8.73-4.96,13.93-5.08,44.94-1.06,95.47-6.7,150.17-16.76,9.45-2.51,24.99-6.1,45.51-10.5,9.35-1.46,22.41-4.72,39.35-9.79,24.84-10.75,34.18-12.02,39.04-12.02h.04c13.02.03,24.27,5.09,33.43,15.04,8.97,9.76,13.5,21,13.48,33.41-.02,12.29-4.28,24.41-12.66,36.03-2.9,4.08-5.38,7.64-7.41,10.61-6.72,9.91-16.19,17.62-27.37,22.29-9.48,3.97-20.3,7.64-32.15,10.91-17.48,4.95-33.92,8.11-48.97,9.4.13,1.03.28,2.19.45,3.47.68,6.29,1,11.13.99,15-.27,133.09-6.48,209.2-18.99,232.67-2.46,4.6-6.06,8.89-10.71,12.77-9.62,8.03-22.12,12.2-34.98,12.2ZM737.66,189.14l.77,10.25c1.24,16.47,1.86,29.58,1.84,38.93-.01,8.17-1.52,46.15-4.48,112.86-1.56,33.74-2.82,58.19-3.77,73.38-.65,10.47,3.33,20.11,10.66,25.78.7.55,1.4,1.03,2.1,1.45.75.47,1.75.9,3.11,1.47,13.55,5.63,28.9,3.78,39.08-4.72,2.82-2.35,4.92-4.8,6.24-7.28,7.49-14.04,16.49-64.31,16.81-223.99h0c0-3.14-.28-7.43-.86-12.76-1.28-9.77-1.45-12.77-1.44-14.38l.05-8.91,8.91-.29c16.12-.52,34.43-3.66,54.41-9.32,11.16-3.08,21.23-6.48,29.99-10.15,7.86-3.29,14.5-8.69,19.21-15.62,2.09-3.07,4.64-6.73,7.66-10.98,6.19-8.58,9.19-16.84,9.2-25.3.02-7.72-2.79-14.54-8.59-20.84-5.59-6.08-12.08-9.04-19.84-9.06h-.01c-2.26,0-9.93,1.05-32.17,10.71l-1.03.38c-18.26,5.47-31.94,8.87-41.83,10.41-19.71,4.25-34.98,7.77-44.84,10.36-56.34,10.39-107.85,16.13-153.76,17.21-1.03.03-1.93.31-2.53.8-7.57,6.3-13.39,14.32-17.29,23.84-5.83,14.22-4.06,29.56,4.63,40.04,5.21,6.28,11.16,9.22,18.72,9.23,16.73.13,46.26-3.89,88.93-11.65l10.12-1.84Z"/>
    </g>
    <g>
      <path class="cls-1" d="M1170.76,224.48c-.06,31.06-7.37,64.64-21.9,100.71-15.49,39.03-35.69,70.65-60.58,94.85-29,28.06-60.63,42.04-94.92,41.97-17.92-.03-31.92-2.28-41.97-6.74-23.89-10.1-42.08-32.18-54.6-66.24-9.69-26.35-14.51-54.76-14.45-85.24.09-44.97,18.9-94.94,56.44-149.9,15.46-22.16,25.08-35.46,28.86-39.88,12.61-14.47,26.23-23.48,40.86-26.99,14.63-3.53,27.92-5.28,39.88-5.26,38.69.08,69.32,15.23,91.91,45.46,20.38,27.26,30.55,59.68,30.48,97.25ZM1061.25,248.67c.05-21.59-8.4-41.74-25.36-60.41-4.72-1.19-7.23-1.79-7.54-1.8-10.07-.02-17.95,6.63-23.63,19.93-2.83,4.43-6.48,11.23-10.89,20.39-6.33,15.08-9.5,33.57-9.55,55.46-.09,44.68,13.08,69.11,39.49,73.3,12.9-6.77,22.84-22.87,29.81-48.31,5.06-19.52,7.63-39.05,7.66-58.58Z"/>
      <path class="cls-2" d="M993.59,471.26h-.25c-19.41-.04-34.36-2.5-45.71-7.53-26.07-11.02-46.15-35.11-59.53-71.5-10.03-27.27-15.08-57.02-15.02-88.45.09-46.65,19.62-98.84,58.05-155.1,15.84-22.71,25.46-35.99,29.46-40.68,13.91-15.96,29.27-26.02,45.74-29.97,15.17-3.66,29.23-5.51,41.77-5.51h.29c41.58.09,74.99,16.63,99.3,49.17,21.52,28.79,32.4,63.38,32.31,102.81-.05,32.08-7.65,67.12-22.57,104.15-15.89,40.03-37,73.02-62.71,98.03-30.59,29.6-64.61,44.59-101.14,44.59ZM1048.1,91.02c-11.08,0-23.68,1.68-37.44,5-12.66,3.04-24.78,11.14-36.06,24.07-2.39,2.8-9.28,11.91-28.24,39.1-36.24,53.07-54.69,101.75-54.77,144.62-.05,29.22,4.61,56.82,13.88,82.02,11.54,31.4,28.21,51.89,49.52,60.91,8.97,3.98,21.83,5.98,38.39,6h.21c31.56,0,61.26-13.24,88.26-39.37,23.82-23.16,43.47-53.99,58.41-91.62,14.06-34.87,21.2-67.59,21.25-97.31h0c.07-35.34-9.56-66.18-28.63-91.69-20.93-28.01-48.58-41.67-84.52-41.74h-.25ZM1025.35,365.17l-3.03-.48c-31.48-4.99-47.39-32.73-47.29-82.46.05-23.04,3.5-42.91,10.26-59.03,4.51-9.39,8.23-16.37,11.22-21.15,9.01-20.51,22.23-24.85,31.8-24.85h.06c1.37.04,1.74.05,9.79,2.08l2.71.68,1.88,2.06c18.48,20.34,27.81,42.77,27.76,66.65-.03,20.16-2.71,40.65-7.96,60.87-7.79,28.42-19.06,46.1-34.47,54.19l-2.72,1.42ZM1027.49,195.72c-2.51.09-8.65,1.18-14.26,14.31l-.71,1.35c-2.67,4.17-6.15,10.71-10.36,19.43-5.62,13.41-8.58,30.88-8.63,51.46-.1,52.46,18.75,61.34,28.48,63.55,9.31-6.37,16.92-20.15,22.65-41.03,4.82-18.6,7.3-37.53,7.33-56.14h0c.04-18.62-6.87-35.69-21.13-52.11-1.55-.38-2.67-.66-3.38-.82Z"/>
    </g>
  </g>
</svg>