<?xml version="1.0" encoding="UTF-8"?>
<svg id="Layer_1" data-name="Layer 1" xmlns="http://www.w3.org/2000/svg" viewBox="0 0 318.77 318.95">
  <defs>
    <style>
      .cls-1 {
        fill: #fff;
      }

      .cls-2 {
        fill: #70a9a1;
      }
    </style>
  </defs>
  <path class="cls-2" d="M228.17,47.38c-.51,20.06-2.2,40.04-5.15,59.87-1.09,7.3-.09,11.58,8.22,14.02,17.62,5.17,34.78,11.86,51.07,20.47,5.32,2.81,10.65,5.84,15.32,9.59,14.07,11.28,11.74,24.37-5.07,30.88-21.3,8.25-43.36,13.92-65.53,19.08-7.88,1.84-10.83,5.17-10.57,13.51.64,20.72.27,41.47.27,62.21,0,3.5-.41,6.89-1.23,10.37-2.07,8.76-4.99,16.94-14.83,19.04-10.29,2.2-18.92-1.87-25.19-10.03-11.83-15.39-21.83-32.01-32-48.52-17.26-28.02-8.11-26.45-41.34-13.51-19.46,7.58-38.63,15.89-58.82,21.5-5.41,1.5-10.83,1.51-16.1.78-12-1.65-18.16-13.35-13.98-25.21,6.26-17.77,20.7-29.49,32.03-43.5,7.61-9.41,15.4-18.7,23.45-27.73,4.45-4.99,4.03-8.83-.21-13.78-13.25-15.48-26.23-31.21-39.05-47.05-5.38-6.65-10.39-13.67-12.82-22.09-3.15-10.92,3.63-20.67,14.98-21.58,10.83-.87,20.57,3.41,30.35,6.91,19.36,6.93,38.86,13.39,58.54,19.36,5.59,1.7,9.33.65,13.38-3.56,16.38-16.99,30.6-35.98,47.99-52.02,4.2-3.87,8.43-7.95,13.32-10.78,16.04-9.3,32.21-.14,32.96,18.38.18,4.46.03,8.93.03,13.4Z"/>
  <g>
    <path class="cls-1" d="M115.49,103.29c.76-1.69,1.78-3.31,3.49-3.98,4.64-1.83,8.31-.31,12.91,1.15,3.52,1.2,6.02,2.28,9.5,3.58,5.44,2.04,12.2,4.86,17.79,7.22,4.56,1.97,8.92,5.47,7.14,10.88-1.96,6.27-9.01,9.57-14.12,11.88-4.66,2.21-11.19,4.78-15.85,7,11.56,6.2,20.41,16.41,14.83,31.23-5.59,14.83-21.85,21.54-38.41,15.3-7.19-2.7-16.05-8.68-19.33-16.13-2.36-4.98-1.57-13.41,5.52-13.26,5.24.12,8.09,4.5,11.02,7.98,4.35,5.6,10.46,9.09,17.82,7.76,8.52-1.55,10.54-10.44,5.65-16.39-4.6-5.7-14.2-6.92-16.94-14.04-2.94-7.98,11.07-11.83,16.18-14.54,3.2-1.44,8.5-3.94,9.95-6.03,1.89-2.2-3.75-3.4-5.6-4.09l-7.75-2.92c-4.18-1.57-11.5-3.53-13.85-7.86-.7-1.31-.69-2.76.06-4.74Z"/>
    <path class="cls-1" d="M202.66,161.89l12.93,5c2.84.54,3.23,1.61,4.77,4.18.75,1.19.81,2.81.28,4.19-.56,1.5-1.88,3.26-3.11,3.71-3.29,1.41-6.92-.22-7.16-.31l-12.27-4.62-5.06,13.44c-.54,2.84-2.39,5.31-4.95,6.85-1.2.75-2.82.79-4.22.28-1.49-.56-4.4-2.32-4.88-3.55-1.38-3.32,1.11-9.26,1.19-9.48l4.56-12.44-9.74-3.65c-3.51-1.2-4.41-1.27-6.18-4.3-1.25-1.94-1.48-3.47-.82-5.22.78-2.08,3.09-3.99,5.83-3.88q3.63.18,7.15,1.37l8.41,3.29,3.37-8.92c1.19-3.51,2.57-7.88,5.6-9.65,1.95-1.25,4.72-1.27,6.45-.61,2.09.78,3.91,3.32,3.81,6.06-.18,3.63-1.83,6.98-3.03,10.49l-2.93,7.76Z"/>
  </g>
</svg>